<mxfile host="app.diagrams.net" modified="2021-01-05T15:39:19.087Z" agent="5.0 (Windows NT 10.0; Win64; x64) AppleWebKit/537.36 (KHTML, like Gecko) Chrome/87.0.4280.88 Safari/537.36" etag="Db8_nMXeyYlxpNRHUaaE" version="14.0.4" type="github">
  <diagram id="MOq4jLjpoIGz-m4iZj-g" name="Page-1">
    <mxGraphModel dx="1730" dy="2155" grid="1" gridSize="10" guides="1" tooltips="1" connect="1" arrows="1" fold="1" page="1" pageScale="1" pageWidth="827" pageHeight="1169" math="0" shadow="0">
      <root>
        <mxCell id="0" />
        <mxCell id="1" parent="0" />
        <mxCell id="cQReViLgm3DgUaf5CIKt-38" value="" style="rounded=1;whiteSpace=wrap;html=1;strokeColor=#FF3333;fontSize=17;fontColor=#FF3333;dashed=1;glass=0;sketch=0;shadow=0;" vertex="1" parent="1">
          <mxGeometry x="14" y="-50" width="800" height="830" as="geometry" />
        </mxCell>
        <mxCell id="cQReViLgm3DgUaf5CIKt-2" value="" style="aspect=fixed;perimeter=ellipsePerimeter;html=1;align=center;shadow=0;dashed=0;spacingTop=3;image;image=img/lib/active_directory/database_server.svg;" vertex="1" parent="1">
          <mxGeometry x="410" y="280" width="164" height="200" as="geometry" />
        </mxCell>
        <mxCell id="cQReViLgm3DgUaf5CIKt-21" style="edgeStyle=orthogonalEdgeStyle;rounded=0;orthogonalLoop=1;jettySize=auto;html=1;fontSize=17;fontColor=#FF3333;" edge="1" parent="1" source="cQReViLgm3DgUaf5CIKt-3" target="cQReViLgm3DgUaf5CIKt-2">
          <mxGeometry relative="1" as="geometry" />
        </mxCell>
        <mxCell id="cQReViLgm3DgUaf5CIKt-3" value="" style="aspect=fixed;perimeter=ellipsePerimeter;html=1;align=center;shadow=0;dashed=0;spacingTop=3;image;image=img/lib/active_directory/windows_server.svg;" vertex="1" parent="1">
          <mxGeometry x="40" y="270" width="155.8" height="190" as="geometry" />
        </mxCell>
        <mxCell id="cQReViLgm3DgUaf5CIKt-10" style="edgeStyle=orthogonalEdgeStyle;rounded=0;orthogonalLoop=1;jettySize=auto;html=1;fontSize=17;fontColor=#FF3333;" edge="1" parent="1" source="cQReViLgm3DgUaf5CIKt-4">
          <mxGeometry relative="1" as="geometry">
            <mxPoint x="90" y="310" as="targetPoint" />
          </mxGeometry>
        </mxCell>
        <mxCell id="cQReViLgm3DgUaf5CIKt-4" value="" style="rounded=0;whiteSpace=wrap;html=1;fillColor=none;strokeColor=#FF3333;" vertex="1" parent="1">
          <mxGeometry x="90" y="30" width="340" height="170" as="geometry" />
        </mxCell>
        <mxCell id="cQReViLgm3DgUaf5CIKt-5" value="" style="aspect=fixed;perimeter=ellipsePerimeter;html=1;align=center;shadow=0;dashed=0;spacingTop=3;image;image=img/lib/active_directory/generic_server.svg;" vertex="1" parent="1">
          <mxGeometry x="175.8" y="41" width="44.8" height="80" as="geometry" />
        </mxCell>
        <mxCell id="cQReViLgm3DgUaf5CIKt-6" value="" style="aspect=fixed;perimeter=ellipsePerimeter;html=1;align=center;shadow=0;dashed=0;spacingTop=3;image;image=img/lib/active_directory/generic_server.svg;" vertex="1" parent="1">
          <mxGeometry x="200" y="60" width="42" height="75" as="geometry" />
        </mxCell>
        <mxCell id="cQReViLgm3DgUaf5CIKt-7" value="" style="shape=image;verticalLabelPosition=bottom;labelBackgroundColor=#ffffff;verticalAlign=top;aspect=fixed;imageAspect=0;image=data:image/png,iVBORw0KGgoAAAANSUhEUgAAAH0AAAAzCAYAAAC60gc5AAAR8UlEQVR4Ae1biXcUVdbPnzDDkq2700k6IRshISGQQNgFBhABBxFxEEfcWdVx3AZUZkRHFBSQJMgiH4qMbB8Miooibiiy6qCoMICj8EGS3qu7a/995750Vap6SRqcAAe6z8mpV1X3vXff/b27vHsrKUj+rjkJpFxzK04uGEnQr8FNkAQ9Cfo1KIFrcMlJTU+Cfg1K4BpccodquvzdMUi790DY8wmEjz4GPv0cyvnGa1DMV9aSU9RdM4Gz+zqEK9/tdwGpdvC2fPDWPKCoAsKWbR0yV3LQxCWQoq7sDmzsD3n7FMiHVwGeHwCZT3yENih998yAv6sNzVYHmi25QEEZhO1vt9Ej+epSSCCFb+gBvr4E6opi4H/KgS1DIawfCemjhyHvewnq6feA5mOAGLhgfnz3zoSvqw1NVgeakqBfsPw6qkML6AS89ldXAnlFCdBQAKwtBf5RDbxRA/HNkVA+eQo4fyhhXpKgJyyqS0oYDboGvnatL4XQUAqpvgh4rRR4qx/Ujx+G6j7RLqNJ0NsV0WUhSOFfrQDfUNqq6RrY8a713YE1FAcMgXrqvTaZToLepngu28sUft0Q8HUliYMe3gxSXSGwZQDUEzviMp8EPa5oLuuLFLx/L0LL8i4YdIoBhFcKgG3DoZz7JuYikqDHFMtlf5gi7X0e0oqCiwKdbyiDXJ8PeeedUBU5ajFJ0KNEckU8SFFOfwy8VX1hft3g70Pk4zf0gXxyV9SCkqBHieSKeJCi0vl702gIdYWJaXt9Cfi6YhOtsrII0s7pUQtKgh4lkiviAcu9y4dXA+srEKpvJ4qv7w7+tf4QXx8GrCqB3FAMvr4HxLpiYNMIINBkWlRM0LfFD/xMnZM3HSaBloKLLEL5YDqwsqht4OtLIK7uA3n/S5COboC8cQw7uwsE+sZaqD9/bmI0Fujirt0tNM3NkN/eCW7+AgQefASUsuX+8hTEV1dD/fobQFVNY130jdMJad9+YO8+gGsnqygIUL7Yh9CyOnCPz2M8Bf78OALPLoT84UeAyx2XDX7TVgjPv4jAoiXsT3hhMYTN/xuXPvKFsPdLqIuX6v2DCxdDIlnwcVLiZ85C2rIN3Ly/IjDrIXDTZ8P/6FzI694Evv8hcnjTvV5lU31noW6bAKwqbhv4umLIa8qh/msNIAahfLUI+EdfYEMl5G9eNw0eCTqXU4TAsjr4582HUjMQ6FYKPiMb/lQb/Gl2+LtYINvygbLeCI6bCHn7DlwM9KqiAO/tQuiOe+CrqIaa1x0YMQbyyVMm/rQbVRQhr1uP4PDrge6VEC0O+LtYW3jqaoWY2VI3EGuHQFjwdyjnz2td9Wto1RogvxRqVjfAXgBYHEDNIMg//KjTxGuoggDuulEtfewFUKm/LR/+u+4HW4uho3rse0gPPQqxogbI645AVxv8qVnwp2WB62oFcosgl1QiNHkq8PGnhp6tTR10eqR6f4ayYwrwehn45Wa/radpKYirKwHWlUM59AobiSVpNvUBnQSMPxPoVgcarQ5w+SUIWXLRlJrF8vEsL0+5ecNfY0Y2vKk2tgDx/jmQG81uwzhHZFs68jX4m24F8rvDl2qDM92Opq42oE8t5FOnI8khHz8BcdIUJmh3qg2NmTkmXnS+LLloTrVBzMyB0G8I1D2fmMYi4IIjx8LVxar3D6Ta4HvoERNdrJvQpi2AoxiNJBeSU1oW0Ls/402jp80vNayE0qOKbcgmWleYXucxXONoysiGp7MFKKkA/6dHoQbMFs4EOk2gCn6o+58HtgwCXi2Kn7hZTia9GsrRNxlf0oF6SHv+ovHIrpGgM+YihZqZi+bMHLhoARHvCACuiwXC6HGQz5wxjR3rRvjnO0D1QPi6WMzgpdmB6gFRoIvkRgYOg7dTpi5wxmOYF5fFwXgzCpc2rpME2rMaIoFl+IU2bARyilrHIvCqaiEej5+yJivj+90N8KSGC1PWFivje+BhfWQCPDRvPpBdiOa0LH1TafJ0kvxIdpHyS7cjlJoFZco0yO5W1xQFuj7TuYNQPpgFbB4MrKVgrQA8BXKG45pQVwRsGgyl8VvWTTl7QO9OjZighzWaAPWRUAp6IFhUDpejGOhRBZ40yrAwErK3UwZk0sZg0DS+8UbY/RFQ2gvOrq2axoSSlgX/bzOAfkMg//uk3kU6cxYYNQ6uThnMAhEtA5S02ZbHeGnOKYRQUgE1rwSe1KxWMG15aOxiASpqIBo0Xg3xCAwbDbIYbG6rA6Ttwcfn6fNGNoJbtwF5JfombUy3s3Elg18Wl9VDteWDLKA2LmlziNxO90p4CsvgLCxjPAtUxk7Lal2TJRdCejZCd08HyO0BCXwC3XwUylcvAttvavHdZNYbClk5ljaAsqIQyvt3R66F3ccCnQk2PZuB7ZlyB+R33mVgyKd/gnLwEALPvQCx72D40+26kMnsyZZccM88F3MeZgVGjEFz50xdKCSgUGYOGysw80Fg7etQvT69Pz/zQXCdLa3CycxBkCzLoOEIvVIP6fAREE/kk+VNW+EdNxGKoxgkbCZ4Wx6cnTIgDR0FxePRxw2uWw/kFOq8kxtjVub0TzqN3pBlBMfeBLdho3JdbeBm/0knEQ8cAnr1Q6NhIzlTbRCKykHWQPn8C8g//wLlzFnIh44g+NwLCFXVwtPFalob+frQ6rVs3Piark8bbig8cO4g1MOvQNg8Cdg8FFhbBmF5AbCxBvLxnZE9Ymo6+VhPbhGkzVuj6LUH6i9n4J8wGYGMbJ3x5nQ7hB5VUGIIj3v4MQQNgiNtkXKLIcx9Gsr/ndOG1a/i3i+ZVjSmtwBIm0qw5iE44wHAAKDegRqqCqn+VfhteWjWgLc6mI/nFi3RSdVAEMGhI+GmmCVs1YTMXPieeFKn0Rr8jndMWk5+GuV9IB1tsZyqqsI7eSq8nS1osrXEPQQ4Bg2H9Kn5pKSNSVfl1Gkok6bATW5Oi5XIMg35HVS/PwFNN45maKuu41APLAU2jQLW5EPaOpkkY6CINu9k0tWCHmCBi4ky+kbx+RAaNc4kPIqiuYWLTcTKT/9hQU9T2CXQHFJ2AfjFS010xhvvjDkIGEChk0No6p1Q5RbzZ6SNbIcWL4WY1U3XZBcFawOHQQ2FdNLg6rWQs7rpoNOGDZX3YRqpEVFUzo2/mQGjbQ6OTjH3zdJIIB39DqjsC9rEjCbdDrGkJ8R9X+k08RpyUxOEwSPQbFAGNbsAwts7Lx50bTKVOw/1syeBXSOhnjusPWbXSPPuS81C4I57TDRt3Qi790Du1kOPUr1pdnjG/N60uYKrXmPmVBMcmUppyrSI7dc6i8pxcFXVwpUWFmRGNhQKyhI4WrFRZBncyLFwa3FHZg6LJUTKBYR/NIev/1A4ta+GrA5IFge4+c9oJODffR9qt1Ldl5PboJhGPPK1ThMgN2PN0zcPuSv/Y3P19+01SLmknCJdfq5OmfDPfujXg65PfGw95P3L9VtqmEAPfy7FX8g3cpIE//AxaNaOQWlZkPsPhdLs1OfxTZ8Dv7abaQ46+78d7Wq0DtK330Et76P7ZjKBvj/8UXud0DWwdDnk7AIdDNLq0FpzjoKrXwnBcKSi4EqsqtW/BuZvuQ0uQwzC0Vmbgi3DzzdjDjjD5lKKyiEdOGigaLupeL0I9B3ccmylQDXVBm7gsP8e6GTYlabvAEXUOTGC7rTkItCtFPKJf+vvE2lQpo6d68k3pduh9OoHyaCVnvE3wxf2zXR08RT3hHL2bNyh6XNsini1441kywf3t2fj0sd6QZ9zyxTUhUENpdkReOElEyn5TuW6UWjSNqzVASEjB8FldRD3H4TsaI3YmZaXVIIFbYZRPDf/AYHwHOQiAlX9YiaGDF2imu4bb4ari0XfoE22vP8e6FGzkabPfKAlCKGzrSUXHkcxCzJi0cZ75ps+G4ItbOLS7ZAr+0L+viXLRX7RPWIMfOHzqSvdjubKGqhtpEvJZVDSQgNdyS4A99zCeNPHfC5+9jmE7AL2lS+5lVBGNgLPvxhFG1jeYNJ20jR/zUDmHujIp7mkAGUj/xh9AvJMvLUVdMq49e6vW4qoyeI8cE+4xQy61dGxoHNznwafEc5wke8rqTCda+PwaXrsHTuhNctFkWvtdfrCGejDrzeB7iTQnS7TGMYb5jN7Vuvm3dvFCu89ZrNqpI/VDtLxz+Ar44GuuNyQBg1vDaZo89LGpOOXtpFJLsU9IXwR/b8H3ntngNOCODp+FveE9M3RWCzFfEZ5DV/tEJAy0AZrpJiod/+OBZ1/YwPLD2tmMJieDe7PT8RkMNZD6dtjUMp66wB50u3wjxqnJxkuBnTF7YG3V1/dz1HUL9cOgdzUHIuFmM98k6fCpwWCbWg6dfYvXgLRktt6dNKOUOErgeq59faY83CLXmZ9NYtASSNugTnVHbNj+CH/3i7I+d11N9T0m3T47p7esaArJ09BpqBJ263pdqg9qyEdbo1Q4zFNMULwzvtAEb+2aJ5Af+qvepeLAZ06u2+/qzX4I9AoMTN3vj5uWw1hx04oxqi7HdAVpxNUqGHaHQF4YwZpeQXEz/bGnFIi319YrruilqNfb0g/Ho9Jb3yoBIMQbpgAlxbkWh2svsBv3NyxoBMT/mn3sly4llwgbfXWDIR6rO3yX2DefObLtSIEBTtK91564oLGvljQ6bhEFSrNr1P2TnQUQ2hYaZRbVFv5bC98xT1bj3thEOOZd20ACvKocqdtXu3q7pwJ/rZpGln0VVHguv5Gll2jPpRo8aRlIThsNNQ4FUMaRPV4Id4/G1yaXbcwdHrgK2uguFwdD7p46AhQ1R+NYY1ljJNv7jsYwZeXQT15Wq+dE7NUtw7echt4WmQ480V9SMu9c1rTk2xxFMhdoE9nkqXEyKQpJm0nayRmFyB03yyoXx3QK1OqJAE/nkBw/gKWKKGMmJ7lShB0pbEJQvVAc02BfHlhGXgKLNv4CR/uhkom2iALT1cbhKpaBF5eBhD4kgRVkoHGRoTe2ADv4BEt2cxw5E+KQ7l7LhxsJp6GbYOx9l6FFi+BlJmrg8h2eqoNvMUBpaoW7kHD4R42mkW2lLGjRekaTru7swX84BFQIvzuxWo68St8e4zlxJspig6nOFkRKNUGtaQSrj792YZyDbgOSkUNghk5rOSpB2AGU92eptN83IKFkMLaSuv3UH6ASsAJfCwSeHwepMyc1kROuKhCBReSn6vvILj6DYFSOxRyTiHImmryow1KdXZhwmR9I18S0Akc8bG5UKhSpCUbNKGl2+Gj9Cod6+idoTxIjFOZFINHQIwRtf4a0AmI0PsfsNKn21CcYGY0I5uZcM7igJf40WISjWdD0oXoEwGdagCknawCRlpOSaRdH7anL+w91epDd8+AQOY6kpd0O9wUDFKugk4FBt5IfvSRBT9sFERDzeKSgK6tTKLCRFlvprma6WZarwlTu1J5tasNqi0P4viJ+rlcG0e7/lrQaRx575cIDRjGLFGk0CJ5I4FT9c9Hm1fjNUHQaS7f08+wtCptslCCWq6tVQnxkJ/8G1BUzj4waVd+nS3MsvBUyaQysuF3SUFnWbu9XzJ/qn2WFLLQRwmZcHaxwN3ZAqoH0xk4RF+n1K0ADIUMA9+sSaC7+g9FoFMGnHTe/k06PKWVpjRtZJ9Y96rTCeXZhZCqB0CxFzC3QylS4onKp3SsEq0OoLwavlkPwnf/LHCd6L2V/Ym/TU8oq6f8cgbBsiogtxj8O+/GYqXNZ0x+u/eAGz+RgU88EW9O4qVzJjvp0DMqASv04cm69VAoJon4XVLQTXN//S8EFy1hmSjPDb+Hh6LUmyaDnzsfKuXOPV4TeawbAp0ACIwY05KZGzYKnslTWfQai77dZ+fOQ3prM4RHnoB7/ER4Ro2F58ZJ4CgVvLwB9H0a/fit26HeMIHNSRlBYcQYhF5b1+7wREA1cHH4GD3XkFCnGETq/oPglyyH97ZpjEcP8TtpCvhn/g6FPuIMxfmgMqGPKGJMeEU9okCI/uirEO3a0QyGv0Bhc2rtBAIyYks69j34DxLz5R21jMun6R21ouS47UogCXq7Irr6CJKgX32YtruiJOjtiujqI0iCfvVh2u6KkqC3K6KrjyAJ+tWHabsrSoLeroiuPoL/B0Tv7snK8VdhAAAAAElFTkSuQmCC;" vertex="1" parent="1">
          <mxGeometry x="44.9" y="-10" width="125" height="51" as="geometry" />
        </mxCell>
        <mxCell id="cQReViLgm3DgUaf5CIKt-8" value="Tienda" style="text;html=1;strokeColor=none;fillColor=none;align=center;verticalAlign=middle;whiteSpace=wrap;rounded=0;fontColor=#FF3333;fontStyle=1;fontSize=17;" vertex="1" parent="1">
          <mxGeometry x="242" y="5.5" width="48" height="20" as="geometry" />
        </mxCell>
        <mxCell id="cQReViLgm3DgUaf5CIKt-11" value="T2A" style="text;html=1;strokeColor=none;fillColor=none;align=center;verticalAlign=middle;whiteSpace=wrap;rounded=0;fontSize=17;fontColor=#FF3333;" vertex="1" parent="1">
          <mxGeometry x="87.39999999999998" y="480" width="40" height="20" as="geometry" />
        </mxCell>
        <mxCell id="cQReViLgm3DgUaf5CIKt-12" value="tLog" style="text;html=1;strokeColor=none;fillColor=none;align=center;verticalAlign=middle;whiteSpace=wrap;rounded=0;fontSize=17;fontColor=#FF3333;" vertex="1" parent="1">
          <mxGeometry x="107.4" y="230" width="40" height="20" as="geometry" />
        </mxCell>
        <mxCell id="cQReViLgm3DgUaf5CIKt-15" value="SQLCorp" style="text;html=1;strokeColor=none;fillColor=none;align=center;verticalAlign=middle;whiteSpace=wrap;rounded=0;fontSize=17;fontColor=#FF3333;" vertex="1" parent="1">
          <mxGeometry x="434" y="480" width="50" height="20" as="geometry" />
        </mxCell>
        <mxCell id="cQReViLgm3DgUaf5CIKt-20" style="edgeStyle=orthogonalEdgeStyle;rounded=0;orthogonalLoop=1;jettySize=auto;html=1;exitX=1;exitY=0.25;exitDx=0;exitDy=0;entryX=-0.024;entryY=0.255;entryDx=0;entryDy=0;entryPerimeter=0;fontSize=17;fontColor=#FF3333;" edge="1" parent="1" source="cQReViLgm3DgUaf5CIKt-3" target="cQReViLgm3DgUaf5CIKt-2">
          <mxGeometry relative="1" as="geometry" />
        </mxCell>
        <mxCell id="cQReViLgm3DgUaf5CIKt-22" value="JMS" style="text;html=1;strokeColor=none;fillColor=none;align=center;verticalAlign=middle;whiteSpace=wrap;rounded=0;fontSize=17;fontColor=#FF3333;" vertex="1" parent="1">
          <mxGeometry x="320" y="300" width="50" height="20" as="geometry" />
        </mxCell>
        <mxCell id="cQReViLgm3DgUaf5CIKt-23" value="Procesamiento" style="text;html=1;strokeColor=none;fillColor=none;align=center;verticalAlign=middle;whiteSpace=wrap;rounded=0;fontSize=17;fontColor=#FF3333;" vertex="1" parent="1">
          <mxGeometry x="320" y="400" width="50" height="20" as="geometry" />
        </mxCell>
        <mxCell id="cQReViLgm3DgUaf5CIKt-29" value="" style="aspect=fixed;perimeter=ellipsePerimeter;html=1;align=center;shadow=0;dashed=0;spacingTop=3;image;image=img/lib/active_directory/generic_server.svg;strokeColor=#FF3333;fillColor=none;fontSize=17;fontColor=#FF3333;" vertex="1" parent="1">
          <mxGeometry x="592" y="560" width="78.4" height="140" as="geometry" />
        </mxCell>
        <mxCell id="cQReViLgm3DgUaf5CIKt-28" value="" style="shape=image;verticalLabelPosition=bottom;labelBackgroundColor=#ffffff;verticalAlign=top;aspect=fixed;imageAspect=0;image=data:image/png,iVBORw0KGgoAAAANSUhEUgAAAIgAAACICAYAAAA8uqNSAAAUbklEQVR4Ae3dB7A8RREGcMw5Y0BRSxS1xBITmBUThjInVDChlBEMmLMoiAqYypyzqGDAhKJizpaKYgJMZQ6Ys7b1cxjv3v3v7u3s3e7tvtuputr37nZnur/+dndCd892sY7lP/+JyJ9//zvi73+P+MtfIv7wh/Txt+/8ls9zXMOy3ZbRmQH//OeIH/wg4vOfjzjmmIgjj4x48YsjnvrUiIc+NGLvvSP23DNi111HnytdKWKXXSIuf/mInXdOH3/7zm/j57pWHepSp7q1oS1tapsMW4hM/STIb34T8cUvRnzwgxGvfnXEwx8ecatbRVz/+hFXvGLEhS8csd127X60qW0ykIVMZCMjWcncw9J9grgbTzgh4v3vjzj44Ii99oq41rUidtgh4oxnbJcEdUhHRrKSmex0oAudevCk6SZBvv/9iA98IOIBD4jYbbeI7bfvPhFKyUMnutGRrnTuYOkGQf71r4iTTop4wQsi7nSn1bwiSg287PO9ougOA1j885+doMtqCQKIl7884u53X09SzCIZstztbqkTfPLJKyVK+wT5618jjj024sEPjrjUpbbeq2OW0et+DyNY6ewafrdc2iOIOQbDwj32iDjrWQdilBLmLGdJIyQYwrKl0jxBTj014mUvS0PAUlCG86ffSIbTMIVtw6U5guh4mkTSUx8M3QwGsIUxrBsqzRDkC1+IuMtdIs50pmaAGQg3whXGsIZ5A2W5BDE0O/zwiPOff6TAYMx2sDjf+SKe85y0hrREoiyPIKecEnHHO7YDxkC62Tjf/vZpHmVJJFkOQT796YgrXGG20INB28XGYiObLKEsTpAPfSjikpdsF4CBcJvjfYlLRHz4wwtTZDGCfPSjaSFqMNjmBlsFRhYJP/axhUhSnyDf+lbyoViF4kOb1QnpdXPiibVJUo8gZvJueMPqQg4GXS1WfFR+//taJKlHED4Ng9H7hcHTn94SQb7znWHltY83xwUvGKFbUFjKnyAHHtivO6ePxmxKZrYrLGUE+fnPkyNvUwoM9TZ783HCZsOCUkaQ44+PsOw8GLKfGFi3+chHCugRUUaQN7yhn8AMhB7Z7TWvaZAghx46amgAvZ9YHHJIgwQ56KB+gjKQeWQ3NiwoZa+Yl7xk1NAAej+x4LJYUMoIIn6jD8FKA3mnk/f0p4943/sK6FHaSf3udwdP9D6Tj4c8GxaUsieIaHfubX0GaZ1lZ7vCcM8ygmCe+IzB17R/NwmbsV1hKSeIBu561/4BtM5PDrqzWY1SnSAeTTle9NvfHhbs+kQ4oZxsprBhwWumOkFk3PnVr0YcfNObIs585uFJ0nWisBFb5cKGbFmxVCfIn/4U8bnPRfztb6Oqn/vciNOdbiBJV0nCNmyUC9uxIVtWLNUJ4tH0ohdtdKn3qDJ1O5CkezcJmzzzmRtfJ7IpsGHuKlQgSXWCqExuLgt2k+WFLxwm0Lr0FDGZySaThe3YsKCUE0Q8qBQOk0WM6I47du9O6pLh2pCFDd761knrJJuxXaMEecITEgFElk8rZuluecuBJG0QYVobN795BJfQaYXNXMOGBaXsCfKkJ6VGTNn+5CfTm5EGUsfo0pceiDLNiE18B2uYz+p8slVO1sOGBaUeQSgpbdT4iGayUQ6yD3pQxLnPPRClCVKoE7YwnueMzEZslWVojSAafNzjJmmx7f+f+EQScJgzGRkpG6vuEZaMDtvNymMfu7HdVglCQZ7SVRKYiBMV/T+s42w0WAlJYAfDKjG3bCKZ72T9rROEAPe5T/UEa1JWP/7xKWxzmD/Z1oCTBuXDIXwSZlWTxOgH3ute0+teCUEoJceniZiq5Wc/i3jjGyP22WfIDjBJCv/LmAAbcxewqlq+970IOUKm1em7lRFE43KEvPvdVVVJ55mNNTR73esi7nzn9Z5LMYcBA1jApGBR7X9gwn6zPC0rJQiSnO1sqWdt54M6xVzKe96TUlRf/epbe0FQZ5OO0nHTudDb6//wwtpoBvaznhz5+5UTJAti3P3851fvm/xf27E//vGP1FN/5StTMtnrXS9ip536SRpkIDsdJMalk1EIHesWiXVhnOc4Mvbzjp0hSBZS6gF9jT/+sS4Mo+v0zCW953j7qlelYbatN655zYjLXjbiPOfZ/A7KcjV1JANZyEQ2UwFkfe97k+xVRnwjjaf/Jf2GJXzYlurROYJkBdw5b35zxK9/PV3put+6A5HPO9vwTxvyv1tl3m+/CNPPV71qSuRrNKDzd5GLRMgKeK5zRZzjHOnRbAhpVOXjb49rvznHua5xrTokslWnurWhLW1qmwxeFWRa5OkwDQ/Yvf71Ede9bjkxsh0aJcgTn1hfMAIasl3jGhFyVXz5y9MgWO53nKwtLDKWu86mPt7XX/1qxKc+leJU5Vizf8u73pUWuSx0+dt3fhPL6lzXuFYd6lKnurXRdLEh0dOeFnGVqyzuWsGGBaVsqt02XJmJix7Pe97UYxcr+qMfFYi8JqfCBDZGNbBaFO98PRsWlDKC2MskN7TMo4x8Zgjf8Y71JgtSwAAWMFkmxrkuNiwoZQQxFGt69lMHD0BWJ+X6/MUvCtTp2al0oyNd6Uz3bMgmjmzHhgWljCBf/3q73uy2DbHXm6n8Zz0rdQCtXJpK7lshM9l1YulCJ7q1uTUK73Y2LChlBOHLeJvbNMvyeXeOkcXFLpYyLO67b4QOl+EeR1wjh5qZ/Arw2vxUHVjT3WQiGxnJKisk2atMZs3DYJHf2K7AH5WyZQRxxdvetjqCzAPHUHT33SPucIeIBz4w4lGPShsYmX9gLMPgn/40fbj+IxNjurONRvhNmKPw8bfv/OYc57omX68udapbtLy2tKlto7SubmbAdoWlnCAYaPw/z1hd+s3Q2mOccw3D+fDAQqbrXCfiRjeKuNnNIm5967TgaNHR377zm3Oc65p8vbrUqe4u6TpPFjYrfHrgUnWCWDjKs4Cf+czg1zHPGF37zcQfmylsWLAIWJ0gorHGd4/mVt+nO6hrRmtLHjYaD4Fgw8Yi677ylY2PqUc/uj+P2LYM0rV22CgXrxg2nOXcnM8bO1Z/glhXsBf9D384ulxHbv/9B5J0jRRZngMOSJ3tbDG2Y8OCNaLqBNHIIx8Z8c535ubS0eOKO1wWajh2Aws2mXyVsB0bFpQygjzkIWkEkzur4w0973lDiEMXbg4jLLaYLGxmJMOGBaWMIFip03PUUdObOO64tAzeBaDWUQYuCGwwrVjjOcMZ0tN+2u8zvisjyJOfnB6fV7taxO9+N71Kk0lYevazd+NRuw5EgTXMYT+tsBVXAViwYUEpIwhnkwz4Ix4x3xcCk03tDkPhEWYZu2UdYQvjWU8NROCv8rCHjWRo1GFonCAeV0ccMZ+LfCatR5iJXBYoQz0JS5jCFsbzChuxVcatNYJo0HSzhCSbFeNurnIDUUaGygYrPcIQllXmMkyQTa4Wt0oQyvExqPpe46Z39NFpUWv77RcHqxTcvp4PKwuBsIPhZsVU+iz30NYJkkEXB3rqqZuJPvr9a1+L4P62xx4R5zznQJaMYz7CBDYwglXVwgaSxOR6Jo8rIwhBKMTBtqRQiFPwU56S3PjH35eTym31/+kulAEWMCm54WAOezaYh9NKCUIwTjE8pmYNg+eRh++FYCIueDIVrcOO3nSkK53pDoPSAmuYw34eOfy2coJkAc2VTE7LlyouzODtb09KZY+sPucZIXv2iGMoutFxkQJjWGfcNzt2hiBZ0L32So/LRUBwrfG8wCHbwQtbfMxj0hwAcLoSVZd1ztF1ZDNPQVYyk50Oy4il8QqCbW6z6rFzBCG4CDX5KhaNRZ0kmVVJj9dTTkmJ6oU4GtpJ1HaPe6T3sWh3BPIo57TLeHWeQq5xrTrUpU51e+drS5vaJoOk+WQiW8HK6aR62/yvro9/PGEJ06qkGD+vUYLMGjqNCzDvbwFAhmtyXsyaFt4GlZpfWMn0PucgI7zg5JNTNJ9IOcNFKRZe8YoIu2iJFZF0dvzjO785x7muca2IQHWpM0fZTa6a1hR55mWwghnsFg2iYsOCUjbVntdi5pGg6m/uPtP1Hrs1fCULdOznqTCBDYw2y/lRFXPnVZ2zOg21MoLoaZcIU+Vc+/Da8Ncjmqd403djl+nCm14glcRzMGlij2I2LChlBLHMX8Xodc8xD+CdzhPqmGPSFhbTfE8KFOz0qXSzTQdd6XyDGzS/uDnLVWMGUGUE+dKXkut/XQKUXGelUmfQNlo6VoZzJ5ywcUuSGUp19muxNXTQn6ET3ejY1oq3sA02LChlBPEIvOlNm32KzCKRRSdrEte+dsT9759mG61m6jQaMVRZoygAZqFTyUImspHRzCiZyU6HyQW0WTov+3u2Y8OCUkYQFb/0pashyCywvKcld5HRx7xAjqqTm/zYY1M87C9/meYfTF2LlqvTKXaNa9VhLkOdYm21oa0cXUcGspCpiT7ELByqfM92haWcIIaOAKgi0KrPsS2GDEEerRe4QMrlJWDa1LY93MzN3O9+iVQWuIQI+Pgb0fzmHOe6xrXygalLneruyz7CbFZjGr86QSwh5xlAE0HrvKi2auKXts9WecdLNmwksi7PWuZHlPdqqaDD+avBjK1yKZzdrf4E4cH0zW+OniLex8P2qKsxeMmNxkZspXh6fOMb1bzRTiNUdYLo/UpnOT5FbrrZYlSJwMO57eF129tuzNDEdkZVBSOZ6gTBKKuSkzsN6NGP70cyEKA9AszDmk3Gg+3Zj+3M0haUMoKIw73nPbet3rify2FbEz7zgFn339iALabNC1l1ZsOCUkYQ7LPsffzx05uw1H2hC3XjDlpHosCeDaYVNmO7Rp8geTX3xjeevagm4awU1OtooFXqLCsS7KcVC6BsRr5GV3OtH2QQDj54mijpO4tQYjdKXOFyvcNxhHEVLGAM6zxHNc0qbJXratRhaJwg1hOm7c86LqDdFqXdHnbAHBkoG2rRI0xhO2v30WwHNhpf+2mNIBS86EWrJWblmCvX+MUvvnygFgW6b9fDEJZVnJ1tMLTDDhsxb5UgwBVZLmtNlfLjH0ccemjaRKcvaxhdIBCsbDwEOxhWKWwyLcNC6wQBoN4xT6Wqc/xm9uz5cu97p9fPMDzeeJfDFCZeIzCCVZ4N3Ywc+iICttlkGrlXQpAsiPTSNvwpKTIkv+UtadX0MpeZrlSufx2OMLCCDJPSLcpgzwbzcFopQQhmsx0do6pPk3Ey8RaXCcdSu0fqeOdqntJ9/k1qbrrSme4wKC2whjnsN8Ni5QQhoMStHGcW2TTIegEHXrEmtvm0PYb8W5sB0PXf6UAXOtFNgtuCtZFtuANjWMO8iu6dIEgWVP50nlYl++lug8BpX0i5aacCm+yI7bBIKK2S97SAptxmV45kIhsZyUpmstOBLosWmMIWxiU6d4ogWXDudwTjoreswgWQ+5/3rkUobn8CmKVbsvcKD6qdd053qylod+6sjluWs8pRHepSpyeBNrSlTW2TgSxkIhsZ67g4zsIJhrCEaRV5J8/pJEGykMbwAoFEqDUZ/yItk5VMO1a702xpbv85ux3YfJAR5d0Y/5iCtkOlj7/Hf/O3a1yrDnWpU39BG9raLBXULINX+R5WMIPdonNJjRIkr8Vkg9c9iivdc890p9XplFUBdSucAxtPI1jVjcWdtFGjazHuoskGF/3fbOwtbhHx2temUIGtYNhFdBAuAQuYwGZRfCevZ8OCUrbcb2w+2eAy/weId7nEeAJ8Jh1eChTrzal0pCud6d4EKcZtxIYFpYwghmRtjRjMD9hAWIJYPg52KbArZJ9DMclOB7rQiW42LGprmzK2y/vGVCRJGUHEVSyy6/M4k0v+lklRHMrlLhexzz4pUs0St46iHQy6sFfdJOBkIhsZycqznOx0oEvTu4dOw5ftCmNjyggCBAtG0xpv+ztrFe4IvXozkbYSE9540EEpl4ZEK1Y8ufkDxWTUPJ+JSQPP+l8d6lKnurWhLfk7tE0GspCJbGTsyloT2xWWcoLwZDcB1DYhStszX8E4ouAYarfd0j50e++dHu02JnBXH3JIxGGHpR0S7JKQP77zm3Oc63XgWnvZqUud6tbGMuZXSvUrPZ/N2K6wlBNEAzLulAo4nL9azNisRqlHEJ2t/fZbrcID4arjz1Y1O/f1CIKJottX0WEdiFGdGLBiI7aqWeoTRIN2mN511zKBBwO3h9eVr5xsVJMcLluMIGow8zfs4tCe0aveYGzCNguWxQlCAEO9292ueyBVBXOrnccWVZyaK5BnOQTRkNVMbvhD3pDV3SiwZ4MlriwvjyCZjVztvfu22l3ZdX1gDvsll+UThIB6zWI3quw+0HXguy4fjGG9wEhlHqeaIUhuUayoMfhW8CXtGlFgCttZ8bjZBgsemyVIFu6zn00LVV3L+tc1o1eRB4YW/WDaQmmHIFkRS833vW/y5awCxnDOqC/H/1XWxcLl+gx93WO7BMlSGp8ffniETYLa8oXoI9lgAyNYLWFOI8NfclwNQbKEwgntIfOMZ0Tc5CYp72gfDblMmeVehQVMYFM15DJjuuTjagkyrgwgPvnJdLdYUt9pp9HjdZkG6GJddKWzJwUMVkyKcbN0hyDjUgklFFPCf5Kr/y67pBznXTRuHZnka6cT3ehI1zqhquOYNfR3Nwkyqawkvnw5xaRIlW3nJYuEO+7Y7deS1wUZyUpmstOBLsvcqmwSryX+3w+CTFP4t79NPp/HHZdiR7j7CYCWq0u4o5zqkqfw+GpieK1OdWtDW9rUNhnIIp6FbPxSydrT0l+CzAJc+keude7SE09MRjryyBQV9+xnp6g5LoQHHpg28eFDuu++aWNCWYl9pIv0nd9s9ONc1wg6UocIO3UigDa0pc1pqSdnydmT77ceQeoA7/3P40qIo4+/O9onqKPeItcMBFkEvTW4diDIGhh5ERUHgiyC3hpcOxBkDYy8iIoDQRZBbw2u/S/CuZzJ/bKtagAAAABJRU5ErkJggg==;" vertex="1" parent="1">
          <mxGeometry x="640" y="670" width="86" height="86" as="geometry" />
        </mxCell>
        <mxCell id="cQReViLgm3DgUaf5CIKt-31" style="edgeStyle=orthogonalEdgeStyle;rounded=0;orthogonalLoop=1;jettySize=auto;html=1;fontSize=17;fontColor=#FF3333;entryX=0.579;entryY=1;entryDx=0;entryDy=0;entryPerimeter=0;exitX=0;exitY=0.75;exitDx=0;exitDy=0;" edge="1" parent="1" source="cQReViLgm3DgUaf5CIKt-29" target="cQReViLgm3DgUaf5CIKt-2">
          <mxGeometry relative="1" as="geometry">
            <mxPoint x="300.00000000000017" y="705" as="sourcePoint" />
            <mxPoint x="514.2" y="720" as="targetPoint" />
          </mxGeometry>
        </mxCell>
        <mxCell id="cQReViLgm3DgUaf5CIKt-36" style="edgeStyle=orthogonalEdgeStyle;rounded=0;orthogonalLoop=1;jettySize=auto;html=1;exitX=0.16;exitY=0.5;exitDx=0;exitDy=0;exitPerimeter=0;entryX=1.048;entryY=0.4;entryDx=0;entryDy=0;entryPerimeter=0;fontSize=17;fontColor=#FF3333;" edge="1" parent="1" source="cQReViLgm3DgUaf5CIKt-32" target="cQReViLgm3DgUaf5CIKt-6">
          <mxGeometry relative="1" as="geometry" />
        </mxCell>
        <mxCell id="cQReViLgm3DgUaf5CIKt-32" value="" style="shape=mxgraph.cisco.computers_and_peripherals.pc;html=1;pointerEvents=1;dashed=0;fillColor=#036897;strokeColor=#ffffff;strokeWidth=2;verticalLabelPosition=bottom;verticalAlign=top;align=center;outlineConnect=0;fontSize=17;fontColor=#FF3333;" vertex="1" parent="1">
          <mxGeometry x="310" y="50" width="80" height="80" as="geometry" />
        </mxCell>
        <mxCell id="cQReViLgm3DgUaf5CIKt-34" value="" style="verticalLabelPosition=bottom;html=1;verticalAlign=top;align=center;strokeColor=none;shape=mxgraph.azure.user;fontSize=17;fontColor=#FF3333;fillColor=#66B2FF;" vertex="1" parent="1">
          <mxGeometry x="320" y="140" width="47.5" height="50" as="geometry" />
        </mxCell>
        <mxCell id="cQReViLgm3DgUaf5CIKt-37" value="HS" style="text;html=1;strokeColor=none;fillColor=none;align=center;verticalAlign=middle;whiteSpace=wrap;rounded=0;fontSize=17;fontColor=#FF3333;" vertex="1" parent="1">
          <mxGeometry x="510" y="535" width="40" height="20" as="geometry" />
        </mxCell>
        <mxCell id="cQReViLgm3DgUaf5CIKt-40" value="" style="rounded=1;whiteSpace=wrap;html=1;strokeColor=#FF3333;fontSize=17;fontColor=#FF3333;dashed=1;glass=1;shadow=0;sketch=0;" vertex="1" parent="1">
          <mxGeometry x="14" y="950" width="800" height="830" as="geometry" />
        </mxCell>
        <mxCell id="cQReViLgm3DgUaf5CIKt-42" style="edgeStyle=orthogonalEdgeStyle;rounded=0;orthogonalLoop=1;jettySize=auto;html=1;fontSize=17;fontColor=#FF3333;" edge="1" parent="1" source="cQReViLgm3DgUaf5CIKt-43">
          <mxGeometry relative="1" as="geometry">
            <mxPoint x="410" y="1370" as="targetPoint" />
          </mxGeometry>
        </mxCell>
        <mxCell id="cQReViLgm3DgUaf5CIKt-43" value="" style="aspect=fixed;perimeter=ellipsePerimeter;html=1;align=center;shadow=0;dashed=0;spacingTop=3;image;image=img/lib/active_directory/windows_server.svg;" vertex="1" parent="1">
          <mxGeometry x="40" y="1260" width="155.8" height="190" as="geometry" />
        </mxCell>
        <mxCell id="cQReViLgm3DgUaf5CIKt-44" style="edgeStyle=orthogonalEdgeStyle;rounded=0;orthogonalLoop=1;jettySize=auto;html=1;fontSize=17;fontColor=#FF3333;" edge="1" parent="1" source="cQReViLgm3DgUaf5CIKt-45">
          <mxGeometry relative="1" as="geometry">
            <mxPoint x="90.00000000000023" y="1300" as="targetPoint" />
          </mxGeometry>
        </mxCell>
        <mxCell id="cQReViLgm3DgUaf5CIKt-45" value="" style="rounded=0;whiteSpace=wrap;html=1;fillColor=none;strokeColor=#FF3333;" vertex="1" parent="1">
          <mxGeometry x="90" y="1020" width="340" height="170" as="geometry" />
        </mxCell>
        <mxCell id="cQReViLgm3DgUaf5CIKt-46" value="" style="aspect=fixed;perimeter=ellipsePerimeter;html=1;align=center;shadow=0;dashed=0;spacingTop=3;image;image=img/lib/active_directory/generic_server.svg;" vertex="1" parent="1">
          <mxGeometry x="175.8" y="1031" width="44.8" height="80" as="geometry" />
        </mxCell>
        <mxCell id="cQReViLgm3DgUaf5CIKt-47" value="" style="aspect=fixed;perimeter=ellipsePerimeter;html=1;align=center;shadow=0;dashed=0;spacingTop=3;image;image=img/lib/active_directory/generic_server.svg;" vertex="1" parent="1">
          <mxGeometry x="200" y="1050" width="42" height="75" as="geometry" />
        </mxCell>
        <mxCell id="cQReViLgm3DgUaf5CIKt-48" value="" style="shape=image;verticalLabelPosition=bottom;labelBackgroundColor=#ffffff;verticalAlign=top;aspect=fixed;imageAspect=0;image=data:image/png,iVBORw0KGgoAAAANSUhEUgAAAH0AAAAzCAYAAAC60gc5AAAR8UlEQVR4Ae1biXcUVdbPnzDDkq2700k6IRshISGQQNgFBhABBxFxEEfcWdVx3AZUZkRHFBSQJMgiH4qMbB8Miooibiiy6qCoMICj8EGS3qu7a/995750Vap6SRqcAAe6z8mpV1X3vXff/b27vHsrKUj+rjkJpFxzK04uGEnQr8FNkAQ9Cfo1KIFrcMlJTU+Cfg1K4BpccodquvzdMUi790DY8wmEjz4GPv0cyvnGa1DMV9aSU9RdM4Gz+zqEK9/tdwGpdvC2fPDWPKCoAsKWbR0yV3LQxCWQoq7sDmzsD3n7FMiHVwGeHwCZT3yENih998yAv6sNzVYHmi25QEEZhO1vt9Ej+epSSCCFb+gBvr4E6opi4H/KgS1DIawfCemjhyHvewnq6feA5mOAGLhgfnz3zoSvqw1NVgeakqBfsPw6qkML6AS89ldXAnlFCdBQAKwtBf5RDbxRA/HNkVA+eQo4fyhhXpKgJyyqS0oYDboGvnatL4XQUAqpvgh4rRR4qx/Ujx+G6j7RLqNJ0NsV0WUhSOFfrQDfUNqq6RrY8a713YE1FAcMgXrqvTaZToLepngu28sUft0Q8HUliYMe3gxSXSGwZQDUEzviMp8EPa5oLuuLFLx/L0LL8i4YdIoBhFcKgG3DoZz7JuYikqDHFMtlf5gi7X0e0oqCiwKdbyiDXJ8PeeedUBU5ajFJ0KNEckU8SFFOfwy8VX1hft3g70Pk4zf0gXxyV9SCkqBHieSKeJCi0vl702gIdYWJaXt9Cfi6YhOtsrII0s7pUQtKgh4lkiviAcu9y4dXA+srEKpvJ4qv7w7+tf4QXx8GrCqB3FAMvr4HxLpiYNMIINBkWlRM0LfFD/xMnZM3HSaBloKLLEL5YDqwsqht4OtLIK7uA3n/S5COboC8cQw7uwsE+sZaqD9/bmI0Fujirt0tNM3NkN/eCW7+AgQefASUsuX+8hTEV1dD/fobQFVNY130jdMJad9+YO8+gGsnqygIUL7Yh9CyOnCPz2M8Bf78OALPLoT84UeAyx2XDX7TVgjPv4jAoiXsT3hhMYTN/xuXPvKFsPdLqIuX6v2DCxdDIlnwcVLiZ85C2rIN3Ly/IjDrIXDTZ8P/6FzI694Evv8hcnjTvV5lU31noW6bAKwqbhv4umLIa8qh/msNIAahfLUI+EdfYEMl5G9eNw0eCTqXU4TAsjr4582HUjMQ6FYKPiMb/lQb/Gl2+LtYINvygbLeCI6bCHn7DlwM9KqiAO/tQuiOe+CrqIaa1x0YMQbyyVMm/rQbVRQhr1uP4PDrge6VEC0O+LtYW3jqaoWY2VI3EGuHQFjwdyjnz2td9Wto1RogvxRqVjfAXgBYHEDNIMg//KjTxGuoggDuulEtfewFUKm/LR/+u+4HW4uho3rse0gPPQqxogbI645AVxv8qVnwp2WB62oFcosgl1QiNHkq8PGnhp6tTR10eqR6f4ayYwrwehn45Wa/radpKYirKwHWlUM59AobiSVpNvUBnQSMPxPoVgcarQ5w+SUIWXLRlJrF8vEsL0+5ecNfY0Y2vKk2tgDx/jmQG81uwzhHZFs68jX4m24F8rvDl2qDM92Opq42oE8t5FOnI8khHz8BcdIUJmh3qg2NmTkmXnS+LLloTrVBzMyB0G8I1D2fmMYi4IIjx8LVxar3D6Ta4HvoERNdrJvQpi2AoxiNJBeSU1oW0Ls/402jp80vNayE0qOKbcgmWleYXucxXONoysiGp7MFKKkA/6dHoQbMFs4EOk2gCn6o+58HtgwCXi2Kn7hZTia9GsrRNxlf0oF6SHv+ovHIrpGgM+YihZqZi+bMHLhoARHvCACuiwXC6HGQz5wxjR3rRvjnO0D1QPi6WMzgpdmB6gFRoIvkRgYOg7dTpi5wxmOYF5fFwXgzCpc2rpME2rMaIoFl+IU2bARyilrHIvCqaiEej5+yJivj+90N8KSGC1PWFivje+BhfWQCPDRvPpBdiOa0LH1TafJ0kvxIdpHyS7cjlJoFZco0yO5W1xQFuj7TuYNQPpgFbB4MrKVgrQA8BXKG45pQVwRsGgyl8VvWTTl7QO9OjZighzWaAPWRUAp6IFhUDpejGOhRBZ40yrAwErK3UwZk0sZg0DS+8UbY/RFQ2gvOrq2axoSSlgX/bzOAfkMg//uk3kU6cxYYNQ6uThnMAhEtA5S02ZbHeGnOKYRQUgE1rwSe1KxWMG15aOxiASpqIBo0Xg3xCAwbDbIYbG6rA6Ttwcfn6fNGNoJbtwF5JfombUy3s3Elg18Wl9VDteWDLKA2LmlziNxO90p4CsvgLCxjPAtUxk7Lal2TJRdCejZCd08HyO0BCXwC3XwUylcvAttvavHdZNYbClk5ljaAsqIQyvt3R66F3ccCnQk2PZuB7ZlyB+R33mVgyKd/gnLwEALPvQCx72D40+26kMnsyZZccM88F3MeZgVGjEFz50xdKCSgUGYOGysw80Fg7etQvT69Pz/zQXCdLa3CycxBkCzLoOEIvVIP6fAREE/kk+VNW+EdNxGKoxgkbCZ4Wx6cnTIgDR0FxePRxw2uWw/kFOq8kxtjVub0TzqN3pBlBMfeBLdho3JdbeBm/0knEQ8cAnr1Q6NhIzlTbRCKykHWQPn8C8g//wLlzFnIh44g+NwLCFXVwtPFalob+frQ6rVs3Piark8bbig8cO4g1MOvQNg8Cdg8FFhbBmF5AbCxBvLxnZE9Ymo6+VhPbhGkzVuj6LUH6i9n4J8wGYGMbJ3x5nQ7hB5VUGIIj3v4MQQNgiNtkXKLIcx9Gsr/ndOG1a/i3i+ZVjSmtwBIm0qw5iE44wHAAKDegRqqCqn+VfhteWjWgLc6mI/nFi3RSdVAEMGhI+GmmCVs1YTMXPieeFKn0Rr8jndMWk5+GuV9IB1tsZyqqsI7eSq8nS1osrXEPQQ4Bg2H9Kn5pKSNSVfl1Gkok6bATW5Oi5XIMg35HVS/PwFNN45maKuu41APLAU2jQLW5EPaOpkkY6CINu9k0tWCHmCBi4ky+kbx+RAaNc4kPIqiuYWLTcTKT/9hQU9T2CXQHFJ2AfjFS010xhvvjDkIGEChk0No6p1Q5RbzZ6SNbIcWL4WY1U3XZBcFawOHQQ2FdNLg6rWQs7rpoNOGDZX3YRqpEVFUzo2/mQGjbQ6OTjH3zdJIIB39DqjsC9rEjCbdDrGkJ8R9X+k08RpyUxOEwSPQbFAGNbsAwts7Lx50bTKVOw/1syeBXSOhnjusPWbXSPPuS81C4I57TDRt3Qi790Du1kOPUr1pdnjG/N60uYKrXmPmVBMcmUppyrSI7dc6i8pxcFXVwpUWFmRGNhQKyhI4WrFRZBncyLFwa3FHZg6LJUTKBYR/NIev/1A4ta+GrA5IFge4+c9oJODffR9qt1Ldl5PboJhGPPK1ThMgN2PN0zcPuSv/Y3P19+01SLmknCJdfq5OmfDPfujXg65PfGw95P3L9VtqmEAPfy7FX8g3cpIE//AxaNaOQWlZkPsPhdLs1OfxTZ8Dv7abaQ46+78d7Wq0DtK330Et76P7ZjKBvj/8UXud0DWwdDnk7AIdDNLq0FpzjoKrXwnBcKSi4EqsqtW/BuZvuQ0uQwzC0Vmbgi3DzzdjDjjD5lKKyiEdOGigaLupeL0I9B3ccmylQDXVBm7gsP8e6GTYlabvAEXUOTGC7rTkItCtFPKJf+vvE2lQpo6d68k3pduh9OoHyaCVnvE3wxf2zXR08RT3hHL2bNyh6XNsini1441kywf3t2fj0sd6QZ9zyxTUhUENpdkReOElEyn5TuW6UWjSNqzVASEjB8FldRD3H4TsaI3YmZaXVIIFbYZRPDf/AYHwHOQiAlX9YiaGDF2imu4bb4ari0XfoE22vP8e6FGzkabPfKAlCKGzrSUXHkcxCzJi0cZ75ps+G4ItbOLS7ZAr+0L+viXLRX7RPWIMfOHzqSvdjubKGqhtpEvJZVDSQgNdyS4A99zCeNPHfC5+9jmE7AL2lS+5lVBGNgLPvxhFG1jeYNJ20jR/zUDmHujIp7mkAGUj/xh9AvJMvLUVdMq49e6vW4qoyeI8cE+4xQy61dGxoHNznwafEc5wke8rqTCda+PwaXrsHTuhNctFkWvtdfrCGejDrzeB7iTQnS7TGMYb5jN7Vuvm3dvFCu89ZrNqpI/VDtLxz+Ar44GuuNyQBg1vDaZo89LGpOOXtpFJLsU9IXwR/b8H3ntngNOCODp+FveE9M3RWCzFfEZ5DV/tEJAy0AZrpJiod/+OBZ1/YwPLD2tmMJieDe7PT8RkMNZD6dtjUMp66wB50u3wjxqnJxkuBnTF7YG3V1/dz1HUL9cOgdzUHIuFmM98k6fCpwWCbWg6dfYvXgLRktt6dNKOUOErgeq59faY83CLXmZ9NYtASSNugTnVHbNj+CH/3i7I+d11N9T0m3T47p7esaArJ09BpqBJ263pdqg9qyEdbo1Q4zFNMULwzvtAEb+2aJ5Af+qvepeLAZ06u2+/qzX4I9AoMTN3vj5uWw1hx04oxqi7HdAVpxNUqGHaHQF4YwZpeQXEz/bGnFIi319YrruilqNfb0g/Ho9Jb3yoBIMQbpgAlxbkWh2svsBv3NyxoBMT/mn3sly4llwgbfXWDIR6rO3yX2DefObLtSIEBTtK91564oLGvljQ6bhEFSrNr1P2TnQUQ2hYaZRbVFv5bC98xT1bj3thEOOZd20ACvKocqdtXu3q7pwJ/rZpGln0VVHguv5Gll2jPpRo8aRlIThsNNQ4FUMaRPV4Id4/G1yaXbcwdHrgK2uguFwdD7p46AhQ1R+NYY1ljJNv7jsYwZeXQT15Wq+dE7NUtw7echt4WmQ480V9SMu9c1rTk2xxFMhdoE9nkqXEyKQpJm0nayRmFyB03yyoXx3QK1OqJAE/nkBw/gKWKKGMmJ7lShB0pbEJQvVAc02BfHlhGXgKLNv4CR/uhkom2iALT1cbhKpaBF5eBhD4kgRVkoHGRoTe2ADv4BEt2cxw5E+KQ7l7LhxsJp6GbYOx9l6FFi+BlJmrg8h2eqoNvMUBpaoW7kHD4R42mkW2lLGjRekaTru7swX84BFQIvzuxWo68St8e4zlxJspig6nOFkRKNUGtaQSrj792YZyDbgOSkUNghk5rOSpB2AGU92eptN83IKFkMLaSuv3UH6ASsAJfCwSeHwepMyc1kROuKhCBReSn6vvILj6DYFSOxRyTiHImmryow1KdXZhwmR9I18S0Akc8bG5UKhSpCUbNKGl2+Gj9Cod6+idoTxIjFOZFINHQIwRtf4a0AmI0PsfsNKn21CcYGY0I5uZcM7igJf40WISjWdD0oXoEwGdagCknawCRlpOSaRdH7anL+w91epDd8+AQOY6kpd0O9wUDFKugk4FBt5IfvSRBT9sFERDzeKSgK6tTKLCRFlvprma6WZarwlTu1J5tasNqi0P4viJ+rlcG0e7/lrQaRx575cIDRjGLFGk0CJ5I4FT9c9Hm1fjNUHQaS7f08+wtCptslCCWq6tVQnxkJ/8G1BUzj4waVd+nS3MsvBUyaQysuF3SUFnWbu9XzJ/qn2WFLLQRwmZcHaxwN3ZAqoH0xk4RF+n1K0ADIUMA9+sSaC7+g9FoFMGnHTe/k06PKWVpjRtZJ9Y96rTCeXZhZCqB0CxFzC3QylS4onKp3SsEq0OoLwavlkPwnf/LHCd6L2V/Ym/TU8oq6f8cgbBsiogtxj8O+/GYqXNZ0x+u/eAGz+RgU88EW9O4qVzJjvp0DMqASv04cm69VAoJon4XVLQTXN//S8EFy1hmSjPDb+Hh6LUmyaDnzsfKuXOPV4TeawbAp0ACIwY05KZGzYKnslTWfQai77dZ+fOQ3prM4RHnoB7/ER4Ro2F58ZJ4CgVvLwB9H0a/fit26HeMIHNSRlBYcQYhF5b1+7wREA1cHH4GD3XkFCnGETq/oPglyyH97ZpjEcP8TtpCvhn/g6FPuIMxfmgMqGPKGJMeEU9okCI/uirEO3a0QyGv0Bhc2rtBAIyYks69j34DxLz5R21jMun6R21ouS47UogCXq7Irr6CJKgX32YtruiJOjtiujqI0iCfvVh2u6KkqC3K6KrjyAJ+tWHabsrSoLeroiuPoL/B0Tv7snK8VdhAAAAAElFTkSuQmCC;" vertex="1" parent="1">
          <mxGeometry x="44.9" y="980" width="125" height="51" as="geometry" />
        </mxCell>
        <mxCell id="cQReViLgm3DgUaf5CIKt-49" value="Tienda" style="text;html=1;strokeColor=none;fillColor=none;align=center;verticalAlign=middle;whiteSpace=wrap;rounded=0;fontColor=#FF3333;fontStyle=1;fontSize=17;" vertex="1" parent="1">
          <mxGeometry x="242" y="995.5" width="48" height="20" as="geometry" />
        </mxCell>
        <mxCell id="cQReViLgm3DgUaf5CIKt-50" value="T2A" style="text;html=1;strokeColor=none;fillColor=none;align=center;verticalAlign=middle;whiteSpace=wrap;rounded=0;fontSize=17;fontColor=#FF3333;" vertex="1" parent="1">
          <mxGeometry x="87.39999999999998" y="1470" width="40" height="20" as="geometry" />
        </mxCell>
        <mxCell id="cQReViLgm3DgUaf5CIKt-51" value="tLog" style="text;html=1;strokeColor=none;fillColor=none;align=center;verticalAlign=middle;whiteSpace=wrap;rounded=0;fontSize=17;fontColor=#FF3333;" vertex="1" parent="1">
          <mxGeometry x="107.4" y="1220" width="40" height="20" as="geometry" />
        </mxCell>
        <mxCell id="cQReViLgm3DgUaf5CIKt-53" style="edgeStyle=orthogonalEdgeStyle;rounded=0;orthogonalLoop=1;jettySize=auto;html=1;exitX=1;exitY=0.25;exitDx=0;exitDy=0;entryX=-0.024;entryY=0.255;entryDx=0;entryDy=0;entryPerimeter=0;fontSize=17;fontColor=#FF3333;" edge="1" parent="1" source="cQReViLgm3DgUaf5CIKt-43">
          <mxGeometry relative="1" as="geometry">
            <mxPoint x="406.06399999999985" y="1321" as="targetPoint" />
          </mxGeometry>
        </mxCell>
        <mxCell id="cQReViLgm3DgUaf5CIKt-54" value="JMS" style="text;html=1;strokeColor=none;fillColor=none;align=center;verticalAlign=middle;whiteSpace=wrap;rounded=0;fontSize=17;fontColor=#FF3333;" vertex="1" parent="1">
          <mxGeometry x="320" y="1290" width="50" height="20" as="geometry" />
        </mxCell>
        <mxCell id="cQReViLgm3DgUaf5CIKt-55" value="Procesamiento" style="text;html=1;strokeColor=none;fillColor=none;align=center;verticalAlign=middle;whiteSpace=wrap;rounded=0;fontSize=17;fontColor=#FF3333;" vertex="1" parent="1">
          <mxGeometry x="320" y="1390" width="50" height="20" as="geometry" />
        </mxCell>
        <mxCell id="cQReViLgm3DgUaf5CIKt-56" value="" style="aspect=fixed;perimeter=ellipsePerimeter;html=1;align=center;shadow=0;dashed=0;spacingTop=3;image;image=img/lib/active_directory/generic_server.svg;strokeColor=#FF3333;fillColor=none;fontSize=17;fontColor=#FF3333;" vertex="1" parent="1">
          <mxGeometry x="419.8" y="1270" width="78.4" height="140" as="geometry" />
        </mxCell>
        <mxCell id="cQReViLgm3DgUaf5CIKt-59" style="edgeStyle=orthogonalEdgeStyle;rounded=0;orthogonalLoop=1;jettySize=auto;html=1;exitX=0.16;exitY=0.5;exitDx=0;exitDy=0;exitPerimeter=0;entryX=1.048;entryY=0.4;entryDx=0;entryDy=0;entryPerimeter=0;fontSize=17;fontColor=#FF3333;" edge="1" parent="1" source="cQReViLgm3DgUaf5CIKt-60" target="cQReViLgm3DgUaf5CIKt-47">
          <mxGeometry relative="1" as="geometry" />
        </mxCell>
        <mxCell id="cQReViLgm3DgUaf5CIKt-60" value="" style="shape=mxgraph.cisco.computers_and_peripherals.pc;html=1;pointerEvents=1;dashed=0;fillColor=#036897;strokeColor=#ffffff;strokeWidth=2;verticalLabelPosition=bottom;verticalAlign=top;align=center;outlineConnect=0;fontSize=17;fontColor=#FF3333;" vertex="1" parent="1">
          <mxGeometry x="310" y="1040" width="80" height="80" as="geometry" />
        </mxCell>
        <mxCell id="cQReViLgm3DgUaf5CIKt-61" value="" style="verticalLabelPosition=bottom;html=1;verticalAlign=top;align=center;strokeColor=none;shape=mxgraph.azure.user;fontSize=17;fontColor=#FF3333;fillColor=#66B2FF;" vertex="1" parent="1">
          <mxGeometry x="320" y="1130" width="47.5" height="50" as="geometry" />
        </mxCell>
        <mxCell id="cQReViLgm3DgUaf5CIKt-63" value="" style="shape=image;verticalLabelPosition=bottom;labelBackgroundColor=#ffffff;verticalAlign=top;aspect=fixed;imageAspect=0;image=data:image/png,iVBORw0KGgoAAAANSUhEUgAAAakAAAEcCAYAAAB9K0udAAAgAElEQVR4Aey9B3RU19U9/q3/+iVxSfm+OIkTxyWJE8eJneK40Vxwwd1xx2Cb3nvvvWN6BwM2HdRQo6iAJCRQ7xUJ1BCo94IQbf/XPqMHo9FIM5JmxDC6b62nNzN65d797r37nnNP+R+oTSGgEFAIKAQUAjaKwP/YaLlUsRQCCgGFgEJAIQBFUqoRKAQUAgoBhYDNIqBIymZfjSqYQkAhoBBQCCiSUm1AIaAQUAgoBGwWAUVSNvtqVMEUAgoBhYBCQJGUagMKAYWAQkAhYLMIKJKy2VejCqYQUAgoBBQCiqRUG1AIKAQUAgoBm0VAkZTNvhpVMIWAQkAhoBBQJKXagEJAIaAQUAjYLAKKpGz21aiCKQQUAgoBhYAiKdUGFAIKAYWAQsBmEVAkZbOvRhVMIaAQUAgoBBRJqTagEFAIKAQUAjaLgCIpm301qmAKAYWAQkAhoEhKtQGFgEJAIaAQsFkEFEnZ7KtRBVMIKAQUAgoBRVKqDSgEFAIKAYWAzSKgSMpmX40qmEJAIaAQUAgoklJtQCGgEFAIKARsFgFFUjb7alTBFAIKAYWAQkCRlGoDCgGFgEJAIWCzCCiSstlXowqmEFAIKAQUAoqkVBtQCCgEFAIKAZtFQJGUzb4aVTCFgEJAIaAQUCSl2oBCQCGgEFAI2CwCiqRs9tWogikEFAIKAYWAIinVBhQCCgGFgELAZhFQJGWzr0YVTCGgEFAIKAQUSak2oBBQCCgEFAI2i4AiKZt9NapgCgGFgEJAIaBISrUBhYBCQCGgELBZBBRJ2eyrUQVTCCgEFAIKAUVSqg0oBBQCCgGFgM0ioEjKZl+NKphCQCGgEFAIKJJSbUAhoBBQCCgEbBYBRVI2+2pUwRQCCgGFgEJAkZRqAwoBhYBCQCFgswgokrLZV6MKphBQCCgEFAKKpFQbUAgoBBQCCgGbRUCRlM2+GlUwhYBCQCGgEFAkpdqAQkAhoBBQCNgsAoqkbPbVqIIpBBQCCgGFgCIp1QYUAgoBhYBCwGYRUCRls69GFUwhoBBQCCgEFEmpNqAQUAgoBBQCNouAIimbfTWqYAoBhYBCQCGgSEq1AYWAQkAhoBCwWQQUSdnsq1EFUwgoBBQCCgFFUqoNKAQUAgoBhYDNIqBIymZfjSqYQkAhoBBQCCiSUm1AIaAQUAgoBGwWAUVSNvtqVMEUAgoBhYBCQJGUagMKAYWAQkAhYLMIKJKy2VejCqYQUAgoBBQCiqRUG1AIKAQUAgoBm0VAkZTNvhpVMIWAQkAhoBBQJKXagEJAIaAQUAjYLAKKpGz21aiCKQQUAgoBhYAiKdUGFAIKAYWAQsBmEVAkZbOvRhVMIaAQUAgoBBRJqTagEFAIKAQUAjaLgCIpm301qmAKAYWAQkAhoEhKtQGFgEJAIaAQsFkEFEnZ7KtRBVMIKAQUAgoBRVKqDSgEFAIKAYWAzSKgSMpmX40qmEJAIaAQUAgoklJtQCGgEFAIKARsFgFFUu34am4CuHnT8ns7VkE9SiGgEFAItCsCiqRaAffNGzdx5eoNVNZcRUnlFRRXXkFOcTUSs0oRkVaEM8kF8Ay/AJczmTgcnAW3kGw4ns7EDp80rPdMwjrPJDnyc1v2dR5J2Hw0Bfv8z8M1JEuexedxPxmXi7DUQsSklyA9rxIF5bVS1vKaq6ipvYZr1260oubqEoWAQkAh0L4IKJIyA+9rN27KAH+hqBqJ2WUISsyHZ9gF7DpxDhs8k7HycALmHYzB+O1hGLbpDAauO42PF5/Ee/N88P4CH3y4wBdvz/VG58lH8K8xbpbbR7viufHueG3mcXywQPes9xb44L35PvhqZQCGbjyNUVtDMGN3FJY5xUtZd/qmwTEoA95RFxF5rvgWgdVcuWYGEuoUhYBCQCHQvggokmoG7+or15BdVI2g5Hzs9T+HFYcTMHVXBAZtOI1Pl5zEK9OP4d9j3PDXYS7402AnPD7YCX8apO2O+OMgR/ypfudn2Qc64o+W3o0851Y56sv0lyHOeGaMG7pNPYJ35nmj14oAIbAFB2Ow3TsNxyJzEJNRjNySGijCaqZRqH8pBBQC7YqAIikjcN+4eROZBVU4FJSJabsj8dWqALw11wudJnniX2Nc8fcRh/HEUGchpEcHOODhfofw+36H8Eh/B9kf7e+AxwZwd6zfdZ//QHLSyMpSx4GO4H1vP0v3meXSysPycedvfP6fhzjhyWEueGqkK54d747XZ3nhi2V+GLzhDGbvi4JLcCYKyi4bQUb9pBBQCCgE2hcBRVJ6eBdV1OJkbC7Wuidh+JZgUdH9a7SbDOokAm2w5+BPEuJvlFgoQd0NO8tKKe6xgY4gkWrkSoIjcVEifGasm6gLx28Pxfcn0hCTUYKKmjo9lNRHhYBCQCHQfggokgJQW3cNMenF+M4rFb1XBODpkYfx228O4qG+B4WMOLCL+uwuIaOWEqaQ1yBNInPAQ30P4Xd9DorkOHZ7GPb4nUdCZinqlLFF+/VM9SSFgEJAEOjwJHX12g2cSsjDuO2heGnqUTw+yAl/GKAbsO2dnPTJjGtqQsT10halxD8MdMATw1zw6ozjmLYrAqeT8tV6lRo4FAIKgXZFoEOT1NXrN+AXlyuGEP8c5SrqO6rBuG6jP4B31M8kKqo2SdrPjHXH4A2n4R6ajerLV9u1kaqHKQQUAh0XgQ5LUpWXr8Ij7AL6rg4UIwKuz3BQ7qiE1Fy9/yDGIQ742zAXfLz4BLyjcnDl2vWO22tUzRUCCoF2Q6BDkhQlKK+oi/h8mT/+ONAJj/Q/pMjJjPU2GouQzAesC0JgUh5q6xRRtVtPVQ+6qxCghbDaLINAhyMptp3YjBIM3XhGrNmozqIvU3OShPrfbR8wqv7+NtwFI7YGI+JcEVRXtExHVHexLwSyC6slyot91erO1KbDkVRWYRUWHIrBM2Pc8XA/tf7UGgKm5Ekn5qXOcchT/lR3pueqp9o0AocCMyQ02rXrahrX1hfVoUiqrLoOP/im4aVpR8SxVa1Btc6/i5InJdBXZhzDvoDzYNgotSkEFAI6BLILqjBk4xlM2BkGSlRqaxsCHYakbty4idPJBfhiub+o9xRBtY6gNMmLFpD0p+q9MgDJF8ra1gpNXH39xk1cLK5G8oVyJGWXyfP4TO667+XIL72Ma9etGzSXUTikDPXP1i8Dy5GeX4nqWvNiILKsuaX19zOok3ZfY8eM/CoUlF9GadUVeRbXV+/ExvXIc5cqkZDV8H0YK3NTv6XnVSC3tEYCNJfX1NnFGifbqkNQBjpPOoI3ZnnBO+aSZD64E+/IXp7ZYUiKUhSjhv+DpuYDHG7F2tMGXVs40k+J5Mn9blgno7Pz8+M9sOloMqqsaJbOWIIHAs5j1p4o8deasTsS2s5YinP2ReNoRA5osWnNjUF5Z+2NwrTdEbeez3JM3x0pMR03HElG2qUKs4rACPqMXD9nX5Rcq9XH1HGRQyw2HknG7pNpEuQ4NLVQnlleXYf2VC3lldZIYGVKC6bK3NT/Fx6KxRr3RGz3TpWB/WTcJaTklIF91doTDrNeUitOYraBGXsiZb2b0Wr4rpTLRiuA1Lukw5DU2YvlGLg+6FYECVsgJf0y0JmW5MQYgL/ve0hCF+n/3xY/PzbQQZyf+6wORFxmiV6zsuxHDlqTfwgXQmTH/89Y91s7/ds6TfTEKtcEmZFb9skN78aI9y9M8JAo9vpl4PrmP0e74ssVAQhOKWh4URPfCiuuYLFDLDpN9ADroH+/5j7z+QwS3GP2cXy29CSGbDyNiTvDJfgx08NQomyP7VxuBT5c6Iu/DnU2u+yG9Xp+godkBug+4xg+WOiLb1adwvgd4UJ+riHZuFRc0x5Vsdgzbt68iZDUQny+zE/GGcbKHLE5GOfMnLhYrCB2dqMOQVJUiTCn0yvTjsng/8fBtmXNx9h5NO3mQMfo5Bz0KaGIStKGYwOSWOn8zBQk231SUWElSaakqg5DNp2Wjs9wVcRK2x/8+oBInfMORKOwotaq3XOpc7y8E4aM0p7PIycVv/3mAHrM8YZ/Qq5ZZcgvrxWpkBIz66B/v+Y+cxJDNSuNVxgR5a/DnCXgMQf8TxafFEmPqVgSskpRVWs9yTLlYjm6TjmC/+251+yyG9ZLqwt/Z1v/8xBnPDXiMF6c4In/LjyBmXsiQQMEqguv3gUGCGz/W4+noPMkTzzaX9cuXp56VKREsxqFOskoAh2CpPJKL2PBwVj8fbiLRJPQ0mrcaemEgwwH+T8PdkKXyZ4Y810ITsbl4UxKASbuCMdTIw+LgcKdLmdzz6fv1BNDXTBsUzBSL5YbbWRt/bG0qg4jtwbjL0Od8egAR1HVShinwfRxc8CTw11ANRgDBFtzY6oWholigF7t+Tz+cZCTGOK8v8AXpxLzzCoC1UJUHbLs4gbBsFTm7gbpYNiOOMizLfFeL070EOmK0eyZjJMzfEtvZy+V49UZx/AbThLMLbex827VhTjq0thodWHbenGSJ6bviURgUgHKq61HupbAh8Qtri1DnW9pbFiHSd+H37XqS0vg0tZ7dAiSCk8rQt81gTLz5LpPc4Nue/xPArrWDyxM+cHBbY17EiLPFYGxBLm2EJCQh0+XnhT1HwfB9ihXa55BSYCS4JuzveEXnwsuHFt600iKWPFZ+uXkwEy/rfYiKUaKFwlXz/mZ75ODUWtIimVnHfTrZO5nIQcZ5HUpYIgNSYplYTqZd+f7YINnEs7mlOG6hYmKJEU1HaVAc8tr6jziyPZEsmJdiAvrQncHquqZcZpZsG1xo7aG6lZiQjWfNs78+qsD+GKZP3KKlJVfa9+b3ZMUGw9Tt9PShg2eHdtUZ7H2/9kBqeLg+golEHY+NuLrN25bajHhIgcYps54mA7HNlDupnB5pJ+DxPZjtPTLVohCoUiqZW2WJMr2RQmLg+bMvZE4l1vZ2jHC6HXWIClj7Yt1IfFSC8JJ226/c7hy9XY/MVq4O/BjafUVLHKMFe0HVX1aXR785gDemHUcJ+NyrSLR3oGqtvsj7Z6kaNq6zDledN1s8HdysOezqdrjQvnny05ijVsSQlOLmowsnnShDMM3B0uD/4MNR8XQpBkaApBQLL11VJLibJxt1nA3NwAyr+OsXhyvneKQVVBlsVdjiqTY1jU1pH75zS27NsjzyHuxjfF+7y/wkUlnmRXaWVvAOXuxDO8t8JF3xXJq5X+4/yE8O84dq92SUFFj2+rKttTfmtfaPUll5FWKtMLFbU0E1xpQex/ZWTkjHLQ+CL4xl0z6hdAMl1JWjzleoga50+VvCi9KqExPP2TDGclobOkG21FJinjznevvHOQpWdB4g22aUizx5+/GJmCyXtbfQawSVx5OsJjFnCmS0tqKftmpyiNpPtTnoJSfBiCU+Fgf9o2m6iA4DKZKVXfOW3O84XQ6E1Vm+qRZuj0a3o9x+qjqozqa9dHqziPrxSONoWIzS1QYMUPwzPhu9yQVmJCP/y46gd/1adh49BtSe33mbPDfY92w5VgK6NdizsbZ79z9UfjHyMPNduL2qoOx58jgMshJ1mRogmvpraORlL7E/er045Ih+u253nhnnreorWn5+dehLpJNme9DW8fh0RhRcaDkAN99+nHs8E4FtQtt3UyRFNfaXp56rEHZ35rjJRaBfx/hIpMaZoOW8ovxiY6AtLZkrJ2R8Ehy1EZ8tuwk/OLzQCf9O73RCGapU5y4Y7CPG5adxEU3iZ2+qbh8VQVlbun7snuS2nXiHF6c6GkTkc6pBqDJcN/Vp8yO0kBp6nhkDt6YeVysyNiJDTvBnf7OwYPl6jbtKFxCsiyexqOjkRRJhZLpx4tPYvfJc2IxSKtB7v7xuTgelSOSxCrXRIzbESqTA6r0SFKUqoy1B96Ta5s0Uz8Zm9vmGX1TJCVEOcgRXSZ5Yq1bIvzjdeVm2WkM5BNzCe5h2TgUmC7O9XP3R4tmofvM43h6lKuUXVR7TbRztjVNch+9LdTia20tHUBpj3ImuQA9l/tL2TXJSf8daBIg/cAYZURtLUPA7kmKVl+ceRlrPPoNqb0+swMykjjNmRnaxpwt7VI5Bq0LErUPr22vspr7HI2k/jPeHZuOpkjEAHPqZe45HY2kOKhRdTR0UzAyC5o2eKCTc3xWKQ6HZGHBoVh8tOiE5Eaj+szYu6NfEu87c0+U2eGbmnpHTZEUJyucjL0x0wtBJszxGSGEAZ/pAE2DiJl7o8QR9j/j3EViIg7G6kEiZD9i9BgaRd1JWarmynXs8EkTAyfW+09N+GAS++fGuUuS1faMDNLU+7ubfrdrkmLjHb89DHQA5UBqrMG3929syCRMetifiL0Ec/LOMGbcgoMxUv6mOm5718PweawT1TjzDsYgt8SykQI6KkkNWn/aPIn7JpBTVINDQRnovSLgVjsxbPP8zrUsLvCT3NqymSKp12Ycx4mYS2Y/gla4jH3IUFEMO/X6zOPSZ0lGhvVg2yMZsl/PPRBt9mTP7MK04MSMgiqM3R6qW1PTM5gw7B+cOFAFutQxFsUV5k1OW1AMuz7VrkmKMd+YoO+B3vttgqC0hssORkdd6rHNCWNDc3TGN3tyuM5JULuPLR1JUn8Z4oSx34VaPAxMRyWpgetPIzHbfDJhhAm30Gx8uOCESDOcEBm2EcZbpLUZI4TUtmF9xByS8om+2OI1I9YhOacMu3zT0GOWl0hUxupB4qLhBSO0MH7hndpYx5emHtW5tzQzEaYDON9Fr28DJJ/dnSrv3fhcuyYphsln1PNffWV7JMVB/dOlfuI/YWrxl6kw3MMuyKIzTdGbUikYDkjt+V1UHYOc0H9tIGLSiy3aFxRJmQ8njSL2+p3HW3O9Rc3NCZF+O6DhAePtjdoagpw2xMazFklpNaW04RiUKX2EBhaG9WCdqPruNOmIqNus4Z+nlaWpI60Lv3WJrzePb15TQ1Jln+f6+K4TaVYPhtxUme/G3+2apCLOFYtajQ51+h31Tn/WGix16ms8Ek02WKotGSqJpPb4ENtZX9PHUSOpz5f6ITAp36J9QZFUy+CUMGAOMfj3GFcZGPUt/jhQck2HRhmUQMxRNxt7urVJis+8cvW6xO57Z56Prv8aSCqsB8mLYYfaQrjG6mfOb3GZpfhq1SlRoRpTSer3D34m9lwTpHrQWiHEzCn33XaO3ZIUrW68oi6Kye5v+xy0KZJig2Wj5mLq6G0hyMw37WSZmF2GwRvPSCO3xXUpDhas07vzfHA86qJFc+gokmrZsMLQWscic/DmbC8ZxPWlEH7mYMk1H/rgkQhas7UHSbFczPz8rXOCRFo3pvbjGhujjre3yo/GD4yw0nWyLoGq/kTAkJy078SefmsMV+UdfbE1sHfIa+yWpKhCo5kr9cXUXWsNxVaObNS/63tQQr1QSjK1cYF24vfhEpCUKhtbqYdWDm1Wy6CjzsFZFg2oqUjKVOto/P/zuRXotzZI1gkNzdLZfhg1feuxFJNSfOM7635pL5Li0xhS6IOFJ2R9iu1Ma3M80geJwZn3B6Q3VVSr/J5dVI2pu3R5o/QnAfplM/aZ5zKuInPbVVjAX80qlbOxm9o1Se30SRUnuodtkKTYgB8Z4CAzsYOBpjtYXlkt6FPSloCkxjqNpX6jFMUO+PxED+z1P29RXylFUi0fNbg2xaSCVCkzrYf+e9bMt5c7x7XaMq49SYoO7eO2h0pkCkNCoHTF3xYcimk5SK28gkGU6e/10eKTsh5lTIqitGpM8mNZOUmgz1RshvVysLWyajZ5md2SFBvSardEPDPGrVEn1e+wd/KzpqNe45ZosnGUVF3BMqc4PD3ysHSMO1luY8/WSOrvIw9jq9dZiwaaVSRlsnk0OoFqvP3+5yUckqEmgSTF8FzM13Sple4C7UlS9Kda654k2W4NSerxQU5ivTtyS7BVIvA3AhaQGHz0c2SyS8MJAPsGpT1ODigxGZaX/YT9/l+jXcXA5U76eBmrmy3+ZrckRb38nP1RInkYqjuMDbJ34jc2WIZrmn/A9CyQjpvrPBLxnzFuMhO7E+U19UxtVsuU4NUWjKumSKrlQwcnafTD6zb1qCzs67879ocnh7mIuwDVgq3Z2pOk2JfpA9Z1ylEZ9Nlv9Ovzy977xdWEZNYeG4PJ9lsTeCuWoH5ZdCTkgJ7f+uHDhSeEsAwlLZ7DuIvTdkXYbOqR9sDR3GfYLUnV1l3H9N2R0hltlaTYuH/Za784L5p6YeyA9JXqNEmXsdewo+p3lDv1mTNEOi2uOByPagsOGIqkTLUO4/9nHjWuET74TUPDIY2kxmwLRVorU5u3J0lR2vCOvoQPFvjKoG8onTzw1X58s/oU8sutH3KIoQJdg7Pw6vRjeMggHijJiBM1WvBtPJIs5un/HH1YJCfDPknp9r8LfRGYaFlLWOMt4e7+1W5JiqnEx+8IkwbzBxs0NNAa7f/23IcpP0SYbEV0cvzhRBq6TvGURm/LJDX/YIxFveoVSZlsHkZP4JoHIz8YumBoJCWO13eBJMXK0bio17f+OpIycFJmduBPl5xscxQNoyAa/EjfqAk7wsQgxdCASVuH+mTJCVlvYrzC9+d760jKQPp7bKCDqPw2H01pNzWlQVXumq92S1LZRVUYsUWXcpyNRyMFWzv+35f7MHWXeST1vW+aWDKxPi0lKV5DSyhrYsFZJCWpSTvDQEdqS22KpFqHJP14miMpSlLn7hKSijxXjL6rA6XdGxokMDwSXR9OJeS1Digzr7qJm4jLLBHz/d8a8b0k+XMdarVbglhNXiqulr7w5yHOjfor1614/qSd4SiurDWzBB3zNLslKQauHK5ISshZM9tl6nPpHPUWUZYmbLFc6u+AUVuDcb6VaiRj3VCRlDFUTP9mT5JUdHox+q3VkZThRIvqTMbCDDlr2pXDNGpNn3G57hp2+KSCAXANjVHY9lmu7jOO42hEjjhJ1127ge3eaXh2nIfRtTT6eH2x3A+R54uafqj6D+yWpJgue/CGM5Jzx7BRW3pwbsv9rC1JsfNw5vnKtGMYsy1E/MaYsoHJ8loqjZmqp0ZStLQ6p0iq2eGFOYhm7dUZ9tDaTh9bLQp6S2P36T+QkSSCEvPx8rRjMHRm5/OeHO6CyT+EtzpJZXuuSbFekeeblqSo7vt8uR9o0GDN7WJJjUx8ueZEKajhO3OQsYbvLCn7djlOJzNSzEkhMEMJkJoNhkn6/kSaNYt919/bLknq5s2bohPusypQEpF1ZJLSHDeXOMQi+nyxOD0O23QGnSfp1rY4YFmKrDSSMuyobe0lSpJqOYKMKs6IEp0me4JBZfUHVL7zp0YdxkKHGBS00tigvUnq9pqUzjhBvz6/6r0fX60KwMUSy6mYGyF+E4hIK5IoHpxEMHKEVgYaTGj9jAYT+il4iiuvYLFjLLgubphmR/rLAAcM3xwMupiozTgCdklSnEUyTAojDnMANpzBaI3LFo7WlKTYcej8O+a7UCTqpWagXn2pc5xkTWUSRs4KLUHk7HS8F4P6skNbalMk1XIka65cxXqPRMlzxBm7fltnu3hhoge+8zqLqlZaYbYnSYl1X0wz1n299qHfuiCL5zHTR53Wwvv8z+M/Y+l36dAgAzLbPYmKzr1BSfmNDCGYWp790Fg4M0qBXDf0i2t7Ikr98trTZ0VSg2/PiPQ7cnt9tiZJUefNBWXGCaPfjLaRxDMLqrDr5Dl8vSpAnBJJ5LoI663HgxMCdkSa1jJbqaU2RVItRzK/7DLGbw9t5CfIAZXv+a053hLfjz5Irdnak6QoFdJPij5fQggGUsyvv9oPGoG0NliuOfVnjrRx34XWx85sqOrTTQYPY+KOMOQUNZbmqMEgERF3ll9/bOEE4l+j3bDcmcYWdeYUpcOdY7ckFdbBJSmSDtU6dBhsysmxoKxWUnozq2uniZ54uH/brP80kvpwgS+oi7fUpkiq5UgyXQoDr3JA1NckUGJm6gtG7+baCQMxt2ZrT5KiY/j6I8lGI05w0Kf0Ps8Mh/jW1FO7Jia9BC9POwqajmuGSBrZUJ36/HgPScFhLGUIwzpRpffEMOdGGgu+j78McUbfNYG696E9UB1vIWC3JBWeVojeHVjdR4nmpWlH4Xwm89bLburD+bxKfOeVip7L/SXsksxWWyFhaiSlJKmmkL79uzUNJyprr4JxK7tMPiKDon7+MUY6YGitJY5xbVKPtSdJXSiqxsSdYUZj91H1RoL4wdd6xgf0USSeJHdKTRo58Ug1Hw1T3pvvg7MXy2+/YL1PDCS79fhZPDe+3hFfr2/x3Tw6wFEI8GBAOpioVW0NEbBbkgo9W4gvl9P5r+FMUr+B2cJna6j7WGdaINGZOc1MPxgu8H7rkiAdnjNTdr6W4qOR1EeLfBGsJKmGPc3gmzVJiuuxTD7JNqC/1qgNqFQ9BSTktThrrn4V2pOkWNb/NhEFnabgzI1lzcgNcRklIulw8qaPJ/vHHwbq1nOZRFJfpa6PFdWQ1Cx8tOiETrI1UPmRaLlmxbxYlLrU1hABuyQpNhY2bHp+U9VhqAdu6eBrzfMtTVIkCnYkzqIZjfyq3lpUw1ff8Bv9UAasCxKVimFHNLf+GkkpSaohtsa+WYuksgursMghFs+Nd9et3+hNNpjCnFZpI7aEoKSybdZk7UVSjObOtBb/GeveQG3JNqlrbw6yHsU1VmtsXLNzCMyU/iQaBr31MJaBAWafGesGBoluTnOaW3IZU3+I0KXaMXA5YH+jCvH9Bb4ISMyz6tqaNTCy9j3tkqSuXdclfXtnnreYfrIxmzvQtvd5liYpdiSqJHqv8EfUefPSuHPAmrM/WpwUdR2mdXhpBMlke8wBZKlNrUmZh2RWYTVWuiZIXDm+C/21E35nkk36yx0KzDDvhs2c1V4kdTLuEpjtWfqwXj+mVMi2SoIgiTFckTW2vNIaWe96cphz48nuIJKUg1jJeoRdaHZ9j+cM+5QAACAASURBVGMSY/79e6xbo4C/HHOoveD/trQhx5c16m8L97RLkuLsxy00q96nwXJ+QNYgMEuTFC2I2HGWOsWZNVumVzyt/yh5kdzaInVqJNVp0hHQ7NZSW0clKWZibi5sETUGl69ck9Tp/vG5mL0v+pYFnL4fD9stnbeZHmL+gWhcKGq71GFtkmKqEd/YSxiwPghPjWgcpJUk9XA/B3y0+ARIZNaw7KO/JTUyNEBhvzDsG/zOkEejt4YiPa/SZHPPyK8SaYkWfYb30iaHX6861ew7N/kQOzzBjkkqGz3meMkMRWZhemoPa5BNa+9pcZIa6Ii/DnWGe5h5JMGOw8gDJDdjfhwtqdft2a27OJJaqr90VJLqtyYINADiwj0lhfLqOhSUXZZ1i+QLZWLm7x6ajZWuiXh/vo9uvcMgriPb/qP9HSV/FNdNIs4VNTvjN/edWYukaG6eW3pZCOqzZX6gipIDuGE75CD/UJ+DokJrbU4sU3Ul7huOJOPfY9ykDGzf+uXgZJARI3b6pJlFkjV11yVx6VMjD8tEUv9evDf739MjXXGEYZXMVNObqoM9/F+RlEHD02847fHZkiTFjsudaQRoOGJq40z8SPgFvDH7uJjW/nFgw07Y0vprJPXvsYqkTGHf3JoU3yHNkt+Z6wMm12PyQqZH33UiDRs9k8Uyj5Hzv1kViB5zvGX9iWTEGbrhgK5N0Bj3jusdlJwtsZlDUr4xF9HsQo1BQUjCIWcLsc4zSaQXTraooiQe+m1R2tkAR9ARfffJ81Yb0CnFMg6lTsPQuG8wsK3E3jtnnuM6pb2jERfEZ4pWlvp14meSFN8fswjkl1o/7YgB/Db7VZGUHZGUNkDR56Ipc1j9llhccQXLnOONZhA17EDmfNdI6hlFUvowG/3cHEkRxz8PdsI/R7nilenH0GO2lzjfvjHruJgqd5rkKWsxJDISE/10DKVgkhN3zsz7rjklEQ2asj4zWkATP5oiqTdmeiEoyXRU8orLV5F6qVxUzlxbGrY5WOpMDJqyMmU7f6y/I3qvCEBspvVSsLuGZssaHiUmY+3/118dkAwGlLjM3c7llmPwhtNiPav1V+3eJGP+9ulSP4mYY+497f08RVJ2RFJUjXBwm7knyqy04Axd1G9tEChBGc5WtY7TkqMiKV8wh5A5W3MkpWFOy1QOkJQmOPMmIXHnbxzAOaBpkpJ2jXbUSIppzAdvPA3/uFxJe25O2cw5pymSorEG9y6TjmCDR5KECWL0EW0PTimQ345F5OBQYLqo06bviUTPb/3RaeKRW0lKDQdwrV5irTvQUdJlHDyVLqpQc8rb0nPorzRrX5Q4xBvrG2LoMMZNQiW15N6ateILEzwbq/zqNSH0p/rOOxXVymdKoFUkZQGSamqg0DpWc0dLqvuoluDsep17kqxfNNd5rt24CcfTGdLZOQtvSx20+imSsixJEU8O+Bwk9XcdEegcSTXsmztyDYTpzvecPC8Wn5Sg27o1RVJaOf4+3AWvTjsmTq50dNX29xf6ilRIh2K2Vfpy8cjrtDpK/Yz0S926qYNER2HOptzSmrZWo8nro9NLRKJhbD2tTtqRfeXRAYcwcH0QkrJLm7yHsX9Q5cc4fZ8sPml0vZx1f3yws0SoSM65HU3d2L06ym+KpIx0Bq0xmjpyEJGOVe/nYOp8Y/+3NEn9bYQL9vqdB62jmtsYvmXT0WTxP5EZeRtw0OqlSMqyJKXh2pYjB1S+X6bmYNoORqjfffIcLhY3jjHXXHsx/J8pktLKzOc32Ov7DONKck2HzriUDmXdx4RkSAmS5Db5+3DEZ5a2ZLnLsPjNfmff2eGdKkYRhmtHWp8n8a9xT0RljfmqPu2hF4trpA7GwiTpCNBRLJN9Yi9ql3TooyKpVg7OnPGI6qWfTu3CgYCEpXVOc4+WIik2bqr7nh3vjsMh2aCk1NxWWl2H+Qejpby81tzyNneeIinbIyntfdHplIRAk+l353ljrXsizpsZjcRYOzJFUjKY11vmsW9ou2YcoJXLnCNVfCQ1hiUauvGMpJKvu2oZAxBjdWOQWKaIZ5JQllu/jOzjJNTXZx0XN4vWxD68ev2mhFmiZaCx9S4+869DXVSeqfqXY7ckxUVPa5ig62Y6XBNwFCnkm1WnQEurT5YYT2ym38CNfbYkSbFxM1I0LfZMLZJzTYTx0DibVSRlbKhq/Bst7YwNXDJBGOAgPjBWW5PiupTerq1NMYgwB02+e1PvkcTBc7mznSw8FAOqlEy1lcZIAKZIylhbb+lvrBMHcR65hjP2u1AExFvOQtFYvaiO84m5hA8XnpBJn079dnsSR5Ii0Y/aFoqkC61XxzHU0lcrAxolpCRGfI/MNszg0GXVKjK63ZKUmxVIijM6SivUo9P5debeKPE7oXWPS3B96JT60DPmdkjLkdTtDLw0czU18NC3ZPS2EDz4zQGTg5u5dVGSlGUlKa7VMKbb30ccNrK7CGHSDJvnEXu2TXMMKri2w4H/mTFuWOwQK87Axgbs5n6zBklxcJY+NkBXD35/cpgLXpt5HMtd4pF6qcJku26uzOb8r+7adSx3jpf0GYZSjpRvkKMum67vuTYZoly/cUMsa5vKkE2pl0Rpycgt5tTfFs+xS5JiCBIO1O/M9Ta6OGnuoKt/HhsoZ60kKJqIrnZLRIreLJT5ZuYdiBbTYHNmtdq97xRJMb37oA2n8WCfg60KJquVX/+oSMoyJMXZO2frXScfwaD1pzFpZxgmfR8mki+lXwYiZW6jPmsC0XtlgAQuZcR7rjtxYCVRccbPNqv/fvQ/M/I2z317jg/cQrLBpH4t2cwlKbYJ7vrPbuozy6tJT38c6IAukz3Rf12QWLqZGyi5JXUwdi7XmIgrHaBZFv2ykkAfH+QkWpOQswVtdoqmtocpcvi+DN8VpV26cqxxZ8inlq97Gavb3fqbXZIUZyl+8bmSKZMNqzVrRfqNk+FXqBZjkEtKH66hWWD6AP2NagKa1/Za4S+6c8NU0fr30/98p0iKqgo6eFLXb+4gol9uY58VSVmGpDg4cjLE1CmMKMGsyonZpUjI0u2J2WWITS+RWbZX9EW4nMmUVBB0Ah2y8bRYbJLoHvz6gKybGqqstHdH1wNKKoxEwXu3ZDNFUhx0SYI0PODOz031Q577l6HO4hf20tSj+HyZv6wJbT6WImGJ8stqW1K0Np3LiSclN1GDG5AriUNcPPZGgTH92rqxDzKoszFsGNaKuHANLrWJFCBtff7dcr1dkhQJg57r9L3gi26qc2idtbkjOzhjnjHMPtUAkeeLUVNnPJhladUVScnNGTBJypzBX5GU6a7SUcMiDd7Q/ABFlS7jVNKnh0GCaTUWea4I3/umyvrN23O9QSs0rp+KFGAw6Gp944UJHhKktSWR0U2RFEnnX2Pc8PwED/D+/xjp2kAq0e9zLAe/M7TTes9kkHhTcspRUnXF6uo9/dZXc+U6fjiRJpNRqtv0y8jPJBOOBe5h2YK7/rWt+cxkpCsPJ8hzDMcoYkJVYI/Z3nAJzgK1Qx11s1uSskRmXjYUqvgY9DEgIVfip5EAm9uoluDMlDNUivGGDd3wuyKp5tDU/a+jkhTVsS31lWH7pAl1YXktjkfmYMSWYLw4wdPoQMi2+Md6Y4oP5vvCN+aS6ZdRf0ZTJMWJGfsN490N3Xgaix1jscwpDsM3BctaDqU3w8mbDMj9D+Gb1ackUsqdGpC55sWAtlzjM6bqI5EwoG1GvulgsuYC6RqShRcnehhVz1Jye3qUK2bujbSqT5i5Zb1T5ymSMphd6pOIRlITd4ajsMI8lQM7mHNwFjpP8jQakl///vxsVyRVv6bw7Dh3UYlaqlF3VJKiTxPVfK3duM7EPGHLneKlPRqTDtgGuf7Ctk51YYWZfj9NkRQHckptL089ikOn0kUtfqm4RlThQzedkYmbIQGwDLRWZAioff7nYSwFe2sxMPc6SqQM7Np95nEhKOKh31dpwi8ZjZ3iQAnIUhsl3y+WMRVJY2mXv1F6oxbHEmtglipze9/HbklKl5k3QKfuM1gA1W98zX3WSIqh+mllY+4Mj6kQaJL+uz6H5PnNPcMeSYqDDVU2ltoUSbUNSYl0/324DLpUIRlrj7Ty/HjJSYSnmRcs1RRJvT7TC6cSboeIompyr985SbtBCcFQmpKoJ4OdZB2OWZ1NaSzahkjjq/PLLmOZU7yoKGklqY8Ry0oS5XoZzdNNKFMa37yZX9i2lzjGCXkTF/3n8jPX8zjp23b8LK5db16L08xj7up/2S1JMS4dA1CSaIzp4w0bQ1PfOeuj6m40/SKyy8xqoFevXQelLzofmlL52RtJcbDh2kJgUr7FOoYiqbZDeTopXywBaTVouP7Btv9Iv0MSTX3T0RST0UpYGlMkxRT1PtEXcVPPqZxS4Zff+ovxgaE0xX7KtkOLtvkHYpBtpUy7TSEZllaEXisCjJaNeLG8ny7xQ/KFcrkFicoSO292JDwHjLH42MDG5M309CRJGljkddDI6HZJUnzxCdll6L82SEx5DTtEU4TU1O8UuekdvvFossmYeHw2k6Wxs3PR+OH+jRdg9Z9jjySl0sfLONbsn+YCzHKwpnVfW9V9+gWg/w/V0G/P86lf/2goLbCPcC1m5LYQnM+r0L/U6GdzSUo/LxLVZN/7polEwucZWh1yvYq/M9UMpa7qdjK9puEJU348N8FDJrSGqj6W6c9DncX5NigpX6ztSLiW2DPzK+EeekEiWJCMjE0gGOWeke8pxZnyfzT6su7yH+2WpLi4OWzTGTFtZSPTJ4aWfuagwXswugRTspsj7jMzLf20qMs2bPT6z1ckZboHKUnKNEbmnJFVWIVpuyPEQZiDob7KjZ+pbqJhgH9Crsm4eK0hKSqrzuVVYPyOMCFhGiXp9wV+Fp+hwU74auWpNq3HmYOHdk56fqVYQ/L5xrQuNAfnpKH79OMYsTkY47aHYvTWEIvsE3aEiy8c/aX4fP13omFDVSOdupc6x6O0uu3BgbV63y1HuyWp7KIqsWyiKWxbSYqNhWTDhrTdOxXXbpg2B6Wpet/VgTIz4gxRa3CGR3skKUZ4pguApTZFUpZBsvbqdewLOC8hhgxJiu2SgyENHphg0VRyxNaQFGvBdV2vqIsSlonrLYaSA6UrsWob6Qr6SVXXGnf3sAwiurv4x+eJ4/QfxKnWyIR2EPN7OUs8PcbUYzJG3ZGf27Y/UX8/kqDh2KB9pxrwL0Oc0HvFKcRkWC9/liUxteS97JakLpZUiym4pUiKDZiNZsjGM+K/YeolZBdWY8JO3YyxOZK0J5LigMOZME32Yy3YmRRJmWpt5v+fDufvL/C9lQJEGwh5JEk9O9Ydq1wTTcaMay1JsaTFlVcwbXekJGQ0ZkTB/sKdxkeM1ceU8tbaaAG58UiyzqHWhMZFU8exnVt6138Php/5LIayYo6uPSfbTw1qLcxbel+7Jamy6isSRoaxzaiuM3zxLf3OBsroDEx3EH2+2CTOFZfrMP9QDP424rDEVGvqefZGUlThDN/cvBOqSfAMTlAkZQBIG75m5FVi1LaQeqOehv1CJ8EcFgKhY3BzW1tIivelpM3oLFSFG5vEUe3GtDNMy8EoENbaqL7vs/qUBO9tTi3P/ssxgOdYY29qfNB+J0aUuhgOK+2S6TVDa+F1J+5rtyRFh8YZuyPxpJBUY9239vJbciRJ0YveITDDpAUUFzjXuieJ1Q47f1PPsUeSGr89FJn5VRZrz4qkLAYlCsovY8GhWDGSMGyXNL1mlPcRW0JwLq95h9W2klTV5avYcixFAjXTMMlY/2D5GMh514lzElXDcijo7sSUGXv8zqHTJA+TVrjGyteev2lGJW/N8RZ1aUcyoLBbkqJPwSKHWHHAM7ZA25oGpnPoc5X7MgSSqY0WQwwJ01QnZBnsjaRY11kS2+yyKXjM/r8iKbOhMnkiQx8x5Qgt+QxJSjMa6Lsm6JapdVM3bCtJ0QI26UIphm0KFoIypu3QqY8dJX4dwyRZesstuYwZeyLFKOJPJlR9rRkvLHpNvcT5VP1aXVU7rNVZGu/W3s+uSWrDkWRJAtiUA2NLGxHXWyhyD98SjFwzfBYOB2eJOS11/U09y55IiioJTgiYVsHcyAXmNFxFUuagZN45nFwx9TrXao2RFInhy28DJPNtc3dsK0nx3nXXb8DpdCZen+UlTqvG+gj7Lp1o95iRbbq58hr+j87CdND/bOnJ+rxRjY2bqNaTtScGqW7P3cDyUsOF/Ytkzkj4tNTsKJvdkhT9M7jISHUBrYi0F92WIxsJoyB/vSoAWWY4G9IM/Q12wA5CUuzIdBbd4JlsUfWMIinLDUdCUq4mSGp5+5AUa1VeU4e5+6NvGSIY9k9pU4OdJGVHaGoBblrIhoJr1isOx4vzsGGECa0Mt0jKCoYSQn7N3JfP1sqhHfkbSerdeT4SHd5yrcK272S3JEVfJgZvfHXGMTzU52CjF669+JYcSVI8//OlfmC6BFObb+wlvDvfB3TGa+o59iJJaR36X6PdsMMnrcX5iZrDUpFUc+i07H8MPLvEUbcmZRgNhe2bJuBf00cpq/n2bQlJSit5QEIePljgK5KdoYMv+w1VyP8Z54ZlLnGgE7QltnOXyjFovZYmwwghDHYU36Tnx3vIRLfz5CNoj52Tai4RcG1QU7/qjx0kNwbv5XqeJWMIWgJTa93DrkmKOaWYroC5YfRfdGs/ayT18eITkpHX1EthUEiqE37XzPPtjaSYqO7gqQyLpDLQ8FUkpSHR9mNOUbU40z4+hFavDQ0W2L65VjV4/WmkXmzegsySJMX3u8QpTqzmmhqYmQTxg4W+EgS27SgAJ2IuibO9sXxqnHAxGC8dm5c6xYtJPtfxrL67JmCVawLm7I8WDYzh++G4RZJiuLWx28MkU7ElsLD1e9gtSRH4uMxSaWi/+fqARUhK60BsvGFppp1V6SvE+IHNkaS9kBQ7D2fBb87ygmfYBeiHw2lrJ1Ak1VYEb1/PNsmkgjSn1iZd2qSNgyIjG4zfHmZSnW1JkmLpfGIuSu4k+iMywoNWJu3IstGdhDE0KQ22Zbt+/ab4Rj033l18w7RnaEf2c2Kz1iNJ4uUxZt6lkhqr77mlNfI8JkOc+sPtyCBauXjUqfwc8O58X3A5wZzoN23ByhautWuS4ktn0Mhf9d7fqNHrv3hzP7eUpOIySvBVRyEpURXpUmvrR7+2RCNXJGUJFCFOsa4h2eLrp5tUNCQDqtX+OdoVcw9EI9+EYZClSYoJDilF0GWEBEES1e+XnADRAIkxNHefOCdrWa1F5UJhNcZsC5VoEYZWhcSFz397jjfOJBe09hFtuu66ZlAy00sXVs0AC5aP/pcLHWLNCizQpsLYwMV2TVIMqskIEXeKpDqSJCUDyyDdAjdTm1tyUyRlGTQpgXzrEi++exyM9UmAn2ngwyCr6z2TUGkir5SlSYo1pJP8p0tOCkmwPRmWj4TCiWLP5f44k1KA62aEJzNEjnmjvKJy8N58HzFCoGSi/xw+9y9DnTB9d6RITobXt9d3SlP91gbKUoFhGUngVEdSSxNt4b7WXvVryXPsmqQIxJQfIuSFNhc/T7+RNve5pZJURyMp6soZPDTdhCNoSxooz1Uk1VLEjJ/PKA/MfttUug5KKjQ0cggyvaZoDZKiIcDWY2cle8Cj/RnXryGBPF7vK0Rpjz6QeaXNR8UwhgKtG7m2xBxNhv6LHPxJ3ow4zviFdyL5olZmRqyZuScSv/7qgKj4DMclmubTwOIH3zTtErs92j1JrXBJkPAqhmK94Us357siKYNBQ08NwRkoM5cudowDE8hZclMk1XY0iypqsdI1QfwGRdWn9+7Y9jlb/8MAR3y2zA+nk/NNrnVYg6RYy8SsUgkM/eRwF6PhzKTsg5zw9lwveIRlt8hAh1HYmRNu4LogceA1HBPYhjnRootJxDnzkj+2/c00fYcdPqliyGJMquT7erjvIYzaGmz3Vn52T1L7T6VLxOXmHGrNISieo0jKOElxvYCDR+eJntjpm4YKC6bXZhdWJNX0QGbOf7i4rnOaPS7vyXC9h22bBEWzZybrNBW3j8+0FkkxnBnJh75A7G9sV4b9k78zKni/NYGIzzRftUzJ6EDAeXSe5ClSlKEajY7oJMflzvEgqd/pLTytEF8s9xPTfGM40CCrx2wv+MXltnsm4/bExu5JirPCjxadwG8t4CulSMo4SbEDcX995nEcjbgg6Rgs2YgVSbUeTSb0oyELfZ84CBublZME6PBONddO31SzpBNrkRRryviCix3iRDLn2oshSXFSxLowasZOn1Szo6QXlNWKlMb78XrD+3JN7h8jXXEsMscmkgsWVdZiqVMcnhhmPJvyw/0cQL9Epp8vrzEdpq31rejOXmn3JHU+txID1wc1awZu2Fib+q5IqmmS4qz0g4UnwNmfpTdzSGqxo/UtnbiWQWnDcKBn3WkizRQYpxLzzKq+uZl5Gd+utRsNJWimPGhDEJ4aedjowMy2zvI/+PUB9F7hb7ZkYk2SouQXllokflH0Y9L6nX6/5KSIE08mITyX27xPl4Zf9PkSvDztqLwrEp3+/cR6sP8hvDL9KKwRJ1ArQ0uODBvlEpyFV6YdkzZnuEantUNKlEnZrW8nLSnTnTjX7kmKYvuMvZHSEY2JzPoN1dRnrbMoP6mGZMXOQidQTgaYEdnSm1kk5RCL4krrqmjam6QGrT8NWnmZuzEyNvMjlVfXISa9GJuOpIi13N9H6IjVUL2ltXf6JtE/arVbIhiY2ZzNmiTF59devSYGDs+MdTdKrlRZUhrqNuUodvimotJEqnkmT6Qq+u8jjJO15oc1amuITaj6tHdAX88hG05LODaNlLT3xvfJ+Iuvz/SC85lMXLlmoZhR2sNt5Gj3JEUdNxcgqcrgCzWmj9deuqmjIqmG5KThxcGCg9xip1gwyralt+ZIioML1xFm7omSvEO03qLhRlt3xpQzdEhuL5LiYMRMrf3XBorTOAfgqtqroMWXtpdV14lajPWko2lGfpUYPHznlSrrSp8t9ZNwPrwP231TEzT5fZATBq4/jZgWmDNbm6TYhkjQw7eEiEm41ve0NscjB2la7X661A+MLtPclpBVhn7rgnQGIgbm7bwPreWYldjlTJZZ6s7mnmXJ/5VV1WHL0RTQ8ZjtwlACZN/7xyhXTN0dgQtF1ZZ8tM3cy+5JiikB2IDZkDmgKZLStb1bfhh9DrYJEw4WD/d3wDNj3bD/1HnU1lk+3XdzJMWMpdTZM4vrwkOxWOeRiJWHE1q90xp0jXuiREAwNEFuL5LigExfnXfneYs0wZTv3Pf63965FrPaVVdX1nvyDxHouyZQou7znVB9R1WZoQVbw0Fe53f01uz6mfhV82fi7UFSjFTufCYLb872ahTCSasHzcgZ9Hn6nogmJWn6RjmdyZLYe8TWUKKk0Qh/o9os9aLlU4K0ZbTnRIlOxR8uPCHqSUOy1vJMvTPPW1TN9phnyu5Jig2Efju0WqJ5qWED1Rq7OUetgSh1322JiphoKgemPrBGJ2mOpDjp4HtlFtd/j3EX/5f/jHVHa3cuRHea6ClSIaUV/a29SIptlHWiP1D3GcfARHeG+6vTj+G5cR54Zow7/j78sAzilAY4EdMG4uYmZIz8TYtX+tqsdk1ATnHLZuHtQVLEPruwSvyFKC0bqrvYZ1nHh/ocwhuzj+tM0o2kmqe1IhM9PjXisM660cD/itII/aYYFd3aKmP99mTu59ySGsmWTEMRQ98uYqBFCmFqIiaTtLetQ5BUTe01bDt+VgYuqjdaS1SKpG6Tk0bqHBSfGOaCoRuDkWylNN/NkZRWDr5Tvlu+o7bsHLAYI27m3shGIWfai6S0OvFIKcHYzv9p9eXgzYmCPkHp38PwM6+jhEUJlOGB4rNKTfpFGQ587UVSlKZo/PHWHC+dut6AYFg31pskNmpbCBKNGBCcSsyXKBWCVyODCV0MQwav9YrOMdtS0BAPa36nJEgDCmorjKUd4vtnG+mzOtCiGbGtWaeW3LtDkBRuAkFJOlN06cgGDdWwEzf1XZFUQ5L602AOdg7ih/Y9/aNqGkoeLWmIzZ3bIpJqJkePNkg1d+RgryOpqDtOUiReDkAkFMOdv2v1aMmki+pRvjOmexi66QwCE/NR14oF9/YiKbYLSkKz9kaKdMk+aCgh8jvfG+P6UVWrLw1xgrq1foJKzAyv5W+02By/I9Sm13RokPTFMn+ZgLHM+mMU6/SYqNzdJUo8A+ja09YxSAqQECpMa86QMH8Y2NhHQv+lN/VZkVRDkuLAIKkdNpw2K79WazuOOSTV1Dtr6e8cAGgEMmvfnSeplpa9ufNJZPQDooqv82RPUR9x4lZ39XqrXkt7khTXZei7xLQ7NBwgORvWlepL7ozJdzwq55bRy9mcCgzfHCzOysauo2TCPFHfn0izSSlKezm02vzWWRd30VhgAmoAOD7NOxhjU9aJWvnbcuwwJMVgs5LOfdoxPDaQL7ThgGvY6I19VyR1GzMOevR47zLlCPb4nUP1FcsbTGgNW5HUbdyNtUvD3ziz5vthe6XUxEHtkf6HRCXGgZ6OsjRtvmpk/UbD3NSxPUmKZckpqhGn1X+OctVZuRmEdSIGnDQ9OcwF474LxaViXVw/99AL6DrlqJirG5M4GRvvi+X+ovI0Vec7+X+6Bkg6kzmMjO7QaMlCpMRBTvh8mZ+4H9zJslr62R2GpAhcWm6FBJylYyPVJ4aiv2FnN/yuSOr2YMlO8egARwzdfAbZhS1bdG9pIyZJjdgaLFLbo/11a4occKyxs11woJvZhCT1xFBdTDn9Z3PCw5nse/Nb5sw7c2+UPIsGD/r3a93n2+o/TQ3Io3avZ8e7Y9jmM3A8nYH03Io2G7iQpGi88Zv6AKjac9guaC3Xffpx+ERfvCXRApONEgAAIABJREFUtPSdG55PaYqqyU+X+EGnZr5dt1vPHuQoZPzCRE+4BmeB7ieM+k4JUhvEtXN55HujJEX3hbYQtmFZrfU9o6ASY78LlTZDQjasC+vITMLMSG5PW4ciKereg1MK0HvlKVEX8EUbElFz3xVJ6UiKOHAApJXj0YicFi+6t7QDkaQ4wFLVw0GF0oG1dkodjAs3Y09jw4nlLvF4fLCzSCb6zydB/b7vQbwzzwdMhW7OxogTM3ZHyrMeElPx1teJ7Ziza53EpGvTVFk+N95DomCM3x6KQ4HpSMgutVhcxZRL5RK94YFe+xq8C0psj/Q7JFESvPXUbuZgYuocRklnLikaEDzUl+b1hpjpLBaJx9erToHrpF+tDMADvffXr+ndPp/n0ESfESbcQ7NNPdom/l9Td018PplinvXnJPE2Bo6CO9sisxzTX9Betg5FUnxpJCoG2+wx2xtMB8CX3Bwx6f9PkZRmUeYggS33+J1HhYm8Q5boKDQFn7gzDM+McZOIATTNttZOM+XnxrmLz1VpdcOOvs4jSSxEeY7+8+lMyUgGVLUwVqQ5G0MWLTgUI6bPfxve8H769zbn83/GuYuzOkP+MDArB+hx20NBUj0cko0Esd6z7GI6tRJc/+FsXr+MT49ylZh7lCpPxl6ymCSlYZpTVI2RW4LF8MPwPbAcfBfcX5x4BJ8uPonXZh432mYYo49uC1N+CDeZhVh7ti0cw9OKMGB9EJ4edRhPj2zYD/idWgCuwSW3IFKJLdSruTJ0OJIiGMUVtVjjloRXpx8VNQBnVexs+oRk7HNHJimxIBqoU6d0m3oEHLDNiZbdXOMz93+00OKseNz2MDEzpsrDWjvNmOlT5xiUiarahutsNIWesKNxGWjGzeuoWkox0wy/vOYqDgVlYMLOcIzcGtKm+kzbHSEpUugnwzxIPtGXEJtRjPzyy1aTcpn1mk7EtBDUfxfEYvS2EPlffGapxaNzc5LpG3NJDD9GbAlu8Gz9cozfHoYJ28Mw9jvujdsLy0kJk1KUodO2ue3yTpzHiC57/M+LNSJx1q+btMOtIVjiGGtVQ6b2rneHJCmCTJNOZiDtPuO4qAI0nbUxctJ+66gkJfr7et8aqpHmH4wRB2kGAm2PjRlYswqqEJdZgth22Jn+gQv11wwyv3JgbqoMMZklEq3AVEZbDS+ugfAZfFZMRtvqRf+0zIIqCZNUefkaaq9eb/Oak1bOpo5c70m5WI6o9GKj7+TsxXKrSdkMWcWIKYxP2GR7yChBdHqxYNvUO6OESbUro9LcLRvX5hgGi75tbHPG6k9fMarI7WXrsCTFF3ixuFpmnh8vPimLqNTrGzNT7cgkRWLW4eKEl6YeFdPslgQ9tZeOouphiwg0Ty7N/9cW62OZMpF07ybiNVXrDk1SBIeLkVyj+mZVoOj1SVLMYSMqQAMz144kSbGuNFLgQuy/x7qLVRVVfOamRTDV8NT/FQIKAYWAOQh0eJIiSGU1dWKVtcghVnIi/WuMGx4frLMUosUUjSuoDuSRFmb/XXRColObAjg2owS9VwQ0m8vq/77ch6m7IkzdSqJgc12my2TPW+a0moTHozg5DnQUqyomHjQVQ4/SUN+1gVI2RiEgKbGOJCXWmZ+fGuGCHnO8xWyfJr2WTgtvstLqBIWAQqDDI6BIqr4JUMfOQLSe4Tmy6PvBAl88MYTmxjqCEpKqVwf+d5GvfZDUmkA8+M0BISSNpOi1z7oyxTYXn5mnJim7DOautXT4HqUAUAgoBCyKgCIpAzhp6ZOZXwW/uFxJpU1Hv57f+oMWbfR2p6nxZ0tPIuJckcGVjb9yQfzLb/3F4ZEkYGz/xRd7xQy28dUNf2E+oZ0+aeg0yUOkHTpM6t+PiesYv+ulKUdxJDzbLElqwLogUWv+Y7SrRMN+Z64PBm84jeUucTgckoXErLJGFm4NS6W+KQQUAgoB6yKgSMoEvgyv4h19Edu8UsSqbcKOcCxzijNrbYbqvl7fBuA3Xx8Qgwyudxnuv+hJkjJP3cfMopK8sb9OutO/F+MRkrhenXYMxyJyTJIUreVWuSaC2V8Z03CNWyIcAjMQnlooifVMwKL+rRBQCCgE2gUBRVJmwEyzT6oD88tqkXyhXNRf5kT8TrtYjum7I/H6zON4f76v0Z0Wc2vdk0yW4vKVa+LT0WdNICjxvDev4f3oxMnfhm0KRnBKoUn/FKrvGL8tPLVIcvYwDw3Xse4ia1yTmKkTFAIKgbsfAUVSLXyHHMR1g7lpA1dGSgg5WyDkQmMGYzvjbMVllJgsxbXrN8S360RsruTXORLe8H78zp3xzQrKak3ej3l6mKeGgSvVphBQCCgEbBUBRVJWfDM3bkKIgFJYczsJyORWT470uDd2L6Zc4O90ElXSkEk01QkKAYXAXYKAIqm75EWpYioE7jYErl+/jqtXr6JO7e2IQR0YocWeNkVS9vQ2VV0UAjaCQG1tLS5dykVmRiYyM9XenhikpaWhrLTURlpC24uhSKrtGKo7KAQUAnoIXLt2Denp5+HvH4CTPicQeNIPpyyy++PUScPdUvdu631YLsN7GJbV2DmG17T+e6CfPwL9ArB10yaEBAfrvZG7+6Miqbv7/anSKwRsDoErV64gMjICgYGBSIiLR1rKWYvs51PTkJ527tbO75a6d1vvc+5saqOy8Lf2Lu+5lFQsWbgQ7q6uNtcuWlsgRVKtRU5dpxBQCBhF4PLlywgPD0NaWiquXmuY7sToBS34kUZBdAm5m4yD2jvY63dbtsDDza0FqNr2qYqkbPv9qNIpBO46BEhSERHhOpK6etUi5a+tvYKcCzlIiE9EbEws4uMS5Htd3Z1PSVF7pQ4lJWWgmlPb6NhRWFCIlOSziI9PQGJCEi5kX2hwjnaupY/bt26Fp7u7pW97x+6nSOqOQa8erBCwTwQ0kkpNPQuq/iyxpadnYOeOnZgxfQZm1u/r1qxFUpJpR3hLPL+5e2RnXZD1t8LCwlunVVRWwNPzCBYuWIg5c+Zi9qzZWL9uPWjUYO2NkpQiKWujrO6vEFAI3LUIWIOkQoJDMXXKVEyaNBkb1m/AmlVrMGL4MOzZtQeVlVW4ceMGysvKUVJSAkpdVLFRsrlx47rgyM80iefGo/b5ypU6ua66uuZWDib+70rtFdTUXJZ78HtlRSUqKipwQ8+n8UpdHaqrqnE66Ay2bt2K9PPpt97ZpdxcrFq1GiNHjMCGDRuwetUaTJowCTu3b0dOTo6UVzv52rXrYDnoYG+JTZGUJVBU91AIKATsFgFrkJS/XwBmz5yNwy5uKCkpRV5uPubOmYOF8xeKCjA1NQ3HjhyDh7sHgk8HIzc3T1RsFy9eFHKJjY1FSnIyampqkJ2VjaysbOTkXERkRBSOHz2OwIAgUR/y/0mJSQjwP4Ww0HBkZmYjJSUVPt6+8PU5gbTUNNTVXUVpSRnCw8Jw0vcENm3chNmzZyP17G0p6cKFHCxbtgyLFy8S6SkpMRkrlq/ApAkT5HlnU1JRWlaGuit1SE1JlTpcqbOMalSRlN12LVUxhYBCwBIIWIWk/HUk5eJ0GIWFRcjLy8fiRYuxZNESHPE8hh3btmPe7NlYMH8BFi9YAK9jXkIevt4nEBcXj2VLlmDzhg3IyMiAh7s7PD2OwMnJGWvXrMWi+QuxfMlyuLt6CKFs3rARUyZNwY7vduCo5zHs3P49FsxbiMULl2D7th3Izr6AwFOBWL5kCRbPX4ARw4ZjyODBDUiKBLhkyRLMmDYdQYGB8Pfzl/LOnT0Xu3/Yje+2bEd0dAzy8vKwa+cu7Nu7H9XV1ZaAH4qkLAKjuolCQCFgrwhYg6ROBZzCmJEjMWniRGzevAXr1q3HwAEDsH79Bmz/bgemT5mGA/v2yzrQkoWLsWHtRlGv7d61B25u7ujXpw8mjBuH06fPYOP6jdi0cTPmzJ6DJYuXwPGQIzZv3Iy1q9bC1/cEpk+djrlz5uKI5xHs3Pk95s+djz279wlZTRw/AT4+J7B54yYsXrgIbi6uWLZ0GcaMGt2ApOjIPHfuXHz2ySeYOX06Jowfj6969xZSJEHOmTUH7m4eiIyMAonr0EEHXKk1HXPTnDajSMoclNQ5CgGFQIdFwBokRcll5LDhGDF8BL79diVWrFiJNatXw9vbByu+XYFpU6ZKhAuuTzkccMCi+YsxfdoMbNqwGevWrEO/Pn0xetRoHDxwSNRuq1eswYC+/UUK2rZ1GxYtWChSj6OjM+bPW4DDLodx7nw6Vq9eja+/+grr1q7Ht8uWo+cXn2Pzpi1CcHt270V5eaVIScuXfiskpS0rXbx4CfPnzUffPt9g/bp12LhhI2ZMn46F8+bj+DEvkaq2btmGffsOYNasWWKxyHU1S2yKpCyBorqHQkAhYLcIWIOkAgJOYerkqfhu63ZZv0lPT0dJcbGo/ZYuXYppU6eivLxCrAmdHZ2xbMlyOXfxoiUYN2YcZkybgWlTp8u6FteGdmzbia97fYVPPvoI06dNx9jRY8Rq0M3VHatWrELQqSBZ11qyeDHeevNNTBg3HuPGjkWvL3sKYZEADx08hGvXbiAsNAxrVq0G15k0kpI1qaXLROWXkZGJ0tJyeB33weCBA+Ho4Ig9e/Zi3tx5mDJpKtasXouKikqLtQdFUhaDUt1IIaAQsEcErEFSNJygioyqMsYF1KQOmrjTsm7smDFCFsnJKVizZi2+27YdwcEhmDljBr7q1Qu7ftgtZPDZJ59i3dq18PHxxeSJkzFjxgwcO+Yla0Jcb6LBxNrVaxEYEIjCgiJs2bQFo0aOkvUrF2cXLJy/ACQyqgApHZ1LO4dDBw8KSZ49m3rrdXJNiuQ5a+ZMhIaEil/Xrh/2YPjQYThx4gRiYuJEBfjFp5/D1cUdzJhgqU2RlKWQVPdRCCgE7BIBa5AUCYdm56dOBd4yFSd4NDUnCcyfMxdTp0wRNRylKq490WR83dp1GD9uvBAWCW5A//5wdnIS6z6q2mgxuHjhYixbsgzOji4iDe36fjdCzoSCZumnAgKxaOFiLFq4SNSK27ZsA8nI2ckF06ZOw4J582WdbNq0aaAvl7bl5xdgzeo1+Lr3V5g4fryoIydNnCS+Xhcv5QrRcs2qV8+eiIqM0i6zyFGRlEVgVDdRCCgE7BUBa5BUdnY2ggKDQDWfJkVp+FVXVokp+MKFC4U09u/bL2bq/H94WLisW5E0qHZzdXVFamqqmJGfP58ulnZzZ8/BhvXrERMdIyrDqKhoZGVdEL+l4uISHPE8KgYWq1asFKs+mqlTnffD998LeW3csAmenkdvPZPPpaWen58/Vq1cJetdy5Ysxfff/yDWhfw//bZWrFiBiRPGIzf3klYVixwVSVkERnUThYBCwF4RuEVSaWmwlO8PcyTVXrmKa/UOuYbYXb5Sh+wLOcjIyEZ5RSU07Vnd1WtSBpokXLsB1NTW4lq9bo3nkITS0zORX1BwKw8Tr9HO4XOqqquRnZ2D7AsXQQdebry2qLgYWdk5KCwqQU1tHQzNHmouX0FJSbn8n75dNZd11nu8f0JCIubPX4ANGzeh1kJROTRMvlNhkTQo1FEhoBBQCDRGoAFJXW3f2HoaOTUuVdO/mHuNuec1/STdfxjn78CBQ1iwYDH8/U+ZOr3F/1ck1WLI1AUKAYVAR0Kg9nKtBJhNTohDTVkhbtZW4npN2/Yblyuh7cbuxf/drK0GrlTjZm3Vredp19youX09f9PucaO26tY12u/aNbfOuVwl9+b9tXP4Pz6Hv/Eo1xjUkb/pzuF5unN4XWVhHqKDgxB2yh+FF7Ia3FN7ZmuONy5XAbXV2Lp+DTzdVRT0jtTnVF0VAgqBFiDAqOARYaGIc9iJi06bUei+Dflu1t8L3LaBe0ue1ZJrWnrvpspR4LEdpcd3ocJrN4qP7GxReZu6J38v8tiOYo/tWDn0S7gf2teCN2bbp6oo6Lb9flTpFAJ3HQK1164jIuQMwiZ+hZjPn0JMz78j5sunEfPlU4huau/5d0TX73K+ke+635+S+/BesvPezey6e+qeq5Xh1rVyj6cR0/MpebaunLfvf7usurJr52nlNHbUynjrfwb11T37acT2/gfie/8Tsb3+UV8PXRm065qrU8wX9XXWMKg/xvV6GnFfPoXZz/wah3duvuvaTVMFViTVFDLqd4WAQqBVCFy5fgPhwafhO+BNBHW6FyGdf4KQrvchpMu9CDbY+Zv83vkeBHf6ie7czj+Rz/zeaO98D0K73IOQrrrrQrrcg1De39i52m+8d+d7pQyhXe4Fd+258uxO2rN579v/18rKc0I734vg+jI2KlP9c1hPnhOinVv/XO0+PMrz6jEQTIiLdr5+ebXP+kfB5R4Ev3APgl/kve5BKHGoxyJMyvkTzPjzjxVJtarlqosUAgqBDoGARlJHB7yBUy/eg9AXOXjfZ2S/FyH83wscaB9AWPffI6z7w8b3Vx9CSLdfIfiF+xH8/I8Q0olkcD9CX/41wpu6pvvDCH3ltwjp/HMEv0ACJNmQFPTK8uI9COnyc4S+8juEvvQAQkiqnXTn8Vwhtxd/gpDnSZg/Q+hLv2mynOGvPYzQV3+LkG6/ROjLv5Gd9+Y9WH/DZ4d0uU/qEfzCj6Reunuz/o8Yx+C1hxH+xqMI7/E4wohHl58iREhRVx/eP7zTTzDzL/fA9futdtPWlCRlN69SVUQhYBsIaCR1fGAPBHW+H2EixfwUIV0Ndg7SXX+BqI/+ieQxPZE2awTSZo3U7bNHIY27fOdxBM5O6oO4Pt0R9tpDQlBhr/wG8QPeQurM4fXX1p+vXTdnNFKnD0LCwB6IePtPCO32c4R2vf92ObrcLwN9zGfPImXCN0gY+DbCXtfdO6Tr/QjrxvLej+BO9yH8jUeQMOhtpE4dgLTZI5E2e7SufFo554zC2SkDEfv1G4h8/ym5V+Lg9xHx9uMI4XO6/hShXX+KMD0MWBb+Fv7mI4jv+zrOTulff8/Rt3Fg/WePRuqM4Uga8Tni+72LhMEfI/bLbgjr/ttb9+b9ee/wLvdh5hP3KpKyja6gSqEQUAjYIgJmkZQM3D9H1GfPIH31bBR7e6LE3wclft4o8fNBqb9u52fZ6/+X6/A9ksZ+jrA3HkHEW39G1sbFKA85jdIA3/prveVa7ZrSAG/kOf6As5P7iBSiIwwdaQS/+BMhn/TF41FyyhcX92xBXJ9XEdJVJ/2QoEK6/EyuSxnfG/mHD+ieUV+2W2X090WJvy/ynPYiZeJAxPZ6FRc2L0XOzrWI7d0VwS/yPrpnkkhITLJ3uhfhbz6KlEl9kO+0W+7NevC+OhyIhTdKT51EkZcnMlfOR/L4gUidMgpJwz4T4tUnft47TJGULXYJVSaFgELAlhBoiqREkuh2P8JEgrlfBtn05VNRHhWGyphIFHo6ocB1PwrcuB+o3/fX/3ZQBuvq5EQUeB5CwtD3EfXfZ5F3+AAuZ2ehxPcIClz36Xa5fj/yD+9Fqb8XqpLi5XPsVy8hpPNPRfVG0jjz/L2I/+ZlFHm74npNLaqSEpC+bJJIKGee/7Go6UJf+RWSRn6MQk9nVCUlotj3qK48Us76MrofRIHrAVzYugLxA95BbO/uKDx6GEW+nogf2APBnX56i6RukUoXqi3vQfyAN1B43A01qWdRGngSBXKvffUY6LAo9HRA3qGdODtlsEhRKROGInHIp4h4+48QlWG9dBbe9aeIUCRlS11BlUUhoBCwRQRMkVRol/sQ+soDSBzxIYr9vFEWegYZK6YhacR7SBzaA4lD30bi0Lfqd37W/ZY6tZ9IRSSd7C3LEN+vBwo8HVERG4lz80cjYeBrun3Q60gY9Bri+72C1Kl9UXzyGCqiwnF22gAEd/4FznAdiutZrz6EjG+nojI+CtWpKahKTkDhcVfE9HwBQlKd7kX0Z8/g4t7NQlC5+79DyoReSBzcA4lDtPK9hcRhLOPbiO3dRaSu6J6dUex3HCWnfBA/6C0hxtAuOtWeRlJcpwrt9mtkrJgu5KiT9r5GwoDXkTCg++26sE6D30B8/1cQ+f6TiHzvb4jp+RKiPvkPQrv/+hb5cQIQ0fWniFQkZYtdQpVJIaAQsCUEmiIpDtCh3aj6ug8RPf6IrPXzUZkQh8z1ixH60oPQGRDQiODHBnv9b8/fj7g+r4tqrtjbA2cn90OB+yEUnziGmF7dRDIK7vIzBFNa6nQfzjx7DyLefRIX925BZVwszi+agOAu/4czNKLo9kvED3gbRd4eQiYZy6bg0oEdqIiJRtrsoaAERQkoedyXKI8IQdmZAMT26iaqu+Bnf4RgSlqG5aRBxwv3IeqLF1B08ghK/I6LJEXpjdKj/noUVY1RH/0Lec77UBZ2BgnDPxaDjNCuD4gBR+jLD+D2/iuEvvxLIVaqIsNe+bXuu976lqxHqTUpW+oGqiwKAYWArSLQLEmJKfr9iPrwn8h32oPy8GAkj/kCQf/4n3oTdEo5NAlvuNOaL/iZ/w/hrz+GnJ1rUBrkj/OLp6PA8zCKfT0R+013hL/zF8T2fQ2xA99EbP/XENvndZydOgjFJ4+jPDwEqVP66Sz9nv8xIt7+M7I2LEJVXDRytq9C1If/RsrkASgL8selfVsQ88VzCOnyK5xfOB7ViQnIO7AdoS/9Cmee+3+NynarrLQC7HQfono2JCmSJtWLt0mKqsafIL7/myg66YXS0NNInT0UyeO+QMr4nkgZ/yVSJvREyoQvkTKxl3yP6/e6kFYwrQ9FKmsomXECoNakbLVHqHIpBBQCNoVAcyRFKSq0y08R8/mLKPJyRymljX6vIeif/yOWdJo6zPBIdVbIcz9C2MsPIn3ZZJSdOYXMNctQdMwDRT7uiOvfA/H9eyDn+3Uo9HbT7cddURZ6GtVnU5DnvBdxvSkJ3YtgEkTf11Hi742KmCicmz0S4W/+FfH93xEDhtIgP6ROG4jQ7n9A+rKpqI6LQ/aGhQjpdD8oATUoG83AubN8tFbsfH+TJCV1EOnnfpx59kdIGv5flEcEozb3EkrP+KPstB/KggPqd385locFocTfS9SCYa//TqQ3nRGGnpVivUSlSMqmuoEqjEJAIWCrCOiTVCDXfvRN0IWk7kf0Zy+g6LgraH0X3/8NoyTFQV0b2HkMfu7/IfTVB5Hx7TSUnQ5A5qrFKDzqjqITOkkq6uP/IGvDYlQnJ+FaZTWq087KetSlXRuQPPozhHX/HYJfvAfhr/4OmStmojI6EvmujshYNgsXtq1E7qHvURZ2Gldyc5HvshcxPbvi/KLxqIqLw4XNixFCA4gXf3zbOq/bT4VwzSWp2+RGkvoxEod/iPLQQNSknxOJsMDDCYVHXHT7UWcUHnURIs9z2oOzU/sh9NVfNSZJPYxoOKFM0G21V6hyKQQUAjaDgGmSuk98iXIP7kRFZBjOTvhKp+578ccyCIv6jBJL/U7phftpqvveehyX9m5GaaAfzi+cigJPFxT7HUNM724489z9iP68Ey7t2Yy6gnxU0qBi3lhEvvcUQrr+EjpV2c8Q9/WrYn1XcuIYzs0ei8wVc8W6sDotDTXn01BXWICqlESkzRmJc/PHoDI+FnnOuxH6yoMIee7/3SoXo1zonJF15Qt+8UciqUX1fF63JnXyKOL6vSaqPVm/knqwjj+SusSJZaE7iv18kDj0c8T2ehmxvV9CbG8eX5E97uvuiPm8M8Jee6TeKpGOz7f9zUjemhpRkZTNdAFVEIWAQsCWEdAnqcbOvPfLYBv+5mPIWDkDlXExuLB1GcLf/ANCuv0vQrr9DCEv/Rwh3X5xe+/K7/8r0SOShv0Xpaf9xGybzrM0Wy/290Ls1y/jzLM/QUiXXyJ+4Fso8vVA9dlEZKycibDuj+HMC/cK0dEp9/yiiSg9HYDsLcsR9dGziPumOzJXz8GFbauQ890qFHo6ihRGFWH6smkoOe0vasP4vm8gjETF8kiZ6svYVSsryePnOnXfiSOipqN1X3Dnn+md/zOEdNMZdkR/9A/kOuxAeUggkkZ+gvDXHkFol19CjCe6/gqh9TujcdDpOeSlXyCkK+9lnKSUus+We4Uqm0JAIWAzCDQgqS73IZwx5fTUUrLw//IDiB/yrkhBFdFhyNqwEEmjPkXi0PeQOOx9JA7V24e8i8ThH+Hc3FEo9DiE6pQkcZaNG9ADBUcdxdov9utXxe+I602hLz8oDrJlwadQGnRSIjmEvfawkEVc39dEjVbs54XksT0R0oXk9ytEfvA3RH/8L0R/8gySR34qqsiK2Chc2LYWl3ZvExP0PKfdEsFCyjaE5vJ6ZRz2gUS2iP7oGcT0fhlFJ46gMjYC6UsnS6QKqZecX3/dsPfFWjBz1WxUJyegwOMAUmcyOsbbSOjfQ3fkZ+6D3kHC4HdBP6/w139fb3Z+e01KU4kqkrKZLqAKohBQCNgyAuaQFNdxwno8irR5w1EeGoTqlGQx2aYxRZGXh8HuhiKfI6iIDBeCynXYiYQBbyDq438j39MBJX5eiPv6FYkBKLH2GMbo9UeRvnQKKqOjJGJF8ugvEPnffyJzrU61l7NjLaL++7SYo0tsPYkh+BMxqgh79fc4N3ckKqLCUOjpinNzJyDPYZc8uywkCEXenrJWpJWT5vA0Zb+0azMSh36C2F7dUXTcDXX5+VI3rr3dqpe3h0TXyHc5gOTRPUHpLM95j9Sflo5FPp5ybZG3O7S9+MRRMbVPnT4EEW/9Saf20w/vpAwnbLk7qLIpBBQCtoZAA5JqKnYfo07Ux8Q7v2C0EFRFRDDKw88Y2XW/01fp0r5tiO3zCkK6/Z/ExcvetBQXd64F4+8Fv8hYgDTNZuDWexH+zl+RvWGJhFtKXzpVrPdytq0UC76kUZ8h5KUHxJxcZ5lXH7qoEy30foaoj/+FnG0rkLt/BxIGfyA+VflOP6AsNFAs8vTLWREZgvKw08g9sF3Oi/roOVxGJEWaAAAG4klEQVTYuhIVEWEo5//068Q6RoSARhJJwz9ESJf/Q/yAHsjdt0Us/GjtR7LSv6YiOgLFJ48iZdwXEg2DPmASsklP7cc6KEnK1nqCKo9CQCFgkwiYRVKUBBiR/MV7EPnWH5E48B0JIHt2cn802qcMwNlJ/ZA04lMho1CuXXW6B+Hdfyum5Iw8wRh4NP/mYC1BZBnBvNPPEP3ps0ge0wvxA99D9CfPI2HAW4jv9wYi3mJIoXqz8VuDfT1R0Q/ppV8i9svOSBj4LiLeeUKMJuJ6dUHK2C9FfdigjFNZvr5IGPgWIno8hvDXH5FoGCkT+4nDcYNzJ/dHyuT+SBjyISLe+TOCaS348gOI+fw5JI38THc+66uPw9SBInVFvfeErG1J9AoJfnt7bUqRlE12BVUohYBCwBYR0EjKa8CbON35XkR0+QnCunJtqvEexvxQL/wYYZ1+johXHhTzcJqIN9i78/tvEdbtl5IyI+yFHyO8yz0I7/YzhL/ya4S9/GuEdf2Z7v5d77v1rP+/vftZjbOOwgDsKpNU8L+1RRDcuDXFZCaxfyz0BhJvQPAadKN34E7tSqor3SlUSUXqoklTsJNUBG8hrW1R3NhNxfbI75tMmMZUpYWSw3kWH2kmv++bc5435d2UznChfdZUO3MoNk+9GBsnX4jN7uxTMVx8fM95xjMOF2Zi+PoTMTz+XAyPPhmXF3oxHByIzWPP3zvbycOx+Ua72nxPdx/HMWxznTwYG93co13ambZTd/bE4dg4+kw3Q7f/YCp+6M/E8NizsXni0D3PHz37cGwcPxgb7Z/zd3MdiI3mucu0/ZdIVxan4/1XfFTHfvx7YSYCBPaJQCupy5fW45u3TsX3/V6s96dibTATF/u7rsFM93r7zKm1+V6szfVidf4/rn5v9Kx2z2B09kK7tz8dF9t7DNrX6dF7DWZitT8dq/PTsdrvddfaXPt+anR+9zwT37fntVkutJn6o/daa+/d3T8x41wv1l4bXd3s3dnt9xvv0s5s79a+dufHMzSDnRmnR+fGDuOz7fntz90O7Xxzm9hze+71/kxcmu/FOy89Fl9+8tE++W14+DF8ntTDG3oCAQITAn/+dSd+unIlzr77dpxdmo1zS6/GyptHYmV5j+ue12djZflfrqWJ+8f3tdd2vz7+2fjrzjMn7t9rlv/12h7zLc3GSrv+cf8eZ9ss3dnt8zszjmfbdc/Os/d4/q57zy0fiW+XZ+O9xZfj3BefTSSS+49KKnd+piew7wTu3L0b17a2Yv3rr+K7M6fj/JmP4/ynp12PyODzDz+In3/c3He/Fw86kJJ6UDn3ESBwX4Hbt2/Hr7/9Hlev34yr12/E1Rs3XY/IYOvaL/HHrVv3zSbbD5RUtsTMS4AAgUICSqpQ2FYlQIBANgEllS0x8xIgQKCQgJIqFLZVCRAgkE1ASWVLzLwECBAoJKCkCoVtVQIECGQTUFLZEjMvAQIECgkoqUJhW5UAAQLZBJRUtsTMS4AAgUICSqpQ2FYlQIBANgEllS0x8xIgQKCQgJIqFLZVCRAgkE1ASWVLzLwECBAoJKCkCoVtVQIECGQTUFLZEjMvAQIECgkoqUJhW5UAAQLZBJRUtsTMS4AAgUICSqpQ2FYlQIBANgEllS0x8xIgQKCQgJIqFLZVCRAgkE1ASWVLzLwECBAoJKCkCoVtVQIECGQTUFLZEjMvAQIECgkoqUJhW5UAAQLZBJRUtsTMS4AAgUICSqpQ2FYlQIBANgEllS0x8xIgQKCQgJIqFLZVCRAgkE1ASWVLzLwECBAoJKCkCoVtVQIECGQTUFLZEjMvAQIECgkoqUJhW5UAAQLZBJRUtsTMS4AAgUICSqpQ2FYlQIBANgEllS0x8xIgQKCQgJIqFLZVCRAgkE1ASWVLzLwECBAoJKCkCoVtVQIECGQTUFLZEjMvAQIECgkoqUJhW5UAAQLZBJRUtsTMS4AAgUICSqpQ2FYlQIBANgEllS0x8xIgQKCQgJIqFLZVCRAgkE1ASWVLzLwECBAoJKCkCoVtVQIECGQTUFLZEjMvAQIECgkoqUJhW5UAAQLZBJRUtsTMS4AAgUICSqpQ2FYlQIBANgEllS0x8xIgQKCQgJIqFLZVCRAgkE1ASWVLzLwECBAoJKCkCoVtVQIECGQTUFLZEjMvAQIECgkoqUJhW5UAAQLZBJRUtsTMS4AAgUICSqpQ2FYlQIBANgEllS0x8xIgQKCQgJIqFLZVCRAgkE1ASWVLzLwECBAoJKCkCoVtVQIECGQTUFLZEjMvAQIECgkoqUJhW5UAAQLZBJRUtsTMS4AAgUICSqpQ2FYlQIBANgEllS0x8xIgQKCQwN+bKUgLlvfzNwAAAABJRU5ErkJggg==;" vertex="1" parent="1">
          <mxGeometry x="498.2" y="1240" width="230.46" height="154" as="geometry" />
        </mxCell>
        <mxCell id="cQReViLgm3DgUaf5CIKt-57" value="" style="shape=image;verticalLabelPosition=bottom;labelBackgroundColor=#ffffff;verticalAlign=top;aspect=fixed;imageAspect=0;image=data:image/png,iVBORw0KGgoAAAANSUhEUgAAAIgAAACICAYAAAA8uqNSAAAUbklEQVR4Ae3dB7A8RREGcMw5Y0BRSxS1xBITmBUThjInVDChlBEMmLMoiAqYypyzqGDAhKJizpaKYgJMZQ6Ys7b1cxjv3v3v7u3s3e7tvtuputr37nZnur/+dndCd892sY7lP/+JyJ9//zvi73+P+MtfIv7wh/Txt+/8ls9zXMOy3ZbRmQH//OeIH/wg4vOfjzjmmIgjj4x48YsjnvrUiIc+NGLvvSP23DNi111HnytdKWKXXSIuf/mInXdOH3/7zm/j57pWHepSp7q1oS1tapsMW4hM/STIb34T8cUvRnzwgxGvfnXEwx8ecatbRVz/+hFXvGLEhS8csd127X60qW0ykIVMZCMjWcncw9J9grgbTzgh4v3vjzj44Ii99oq41rUidtgh4oxnbJcEdUhHRrKSmex0oAudevCk6SZBvv/9iA98IOIBD4jYbbeI7bfvPhFKyUMnutGRrnTuYOkGQf71r4iTTop4wQsi7nSn1bwiSg287PO9ougOA1j885+doMtqCQKIl7884u53X09SzCIZstztbqkTfPLJKyVK+wT5618jjj024sEPjrjUpbbeq2OW0et+DyNY6ewafrdc2iOIOQbDwj32iDjrWQdilBLmLGdJIyQYwrKl0jxBTj014mUvS0PAUlCG86ffSIbTMIVtw6U5guh4mkTSUx8M3QwGsIUxrBsqzRDkC1+IuMtdIs50pmaAGQg3whXGsIZ5A2W5BDE0O/zwiPOff6TAYMx2sDjf+SKe85y0hrREoiyPIKecEnHHO7YDxkC62Tjf/vZpHmVJJFkOQT796YgrXGG20INB28XGYiObLKEsTpAPfSjikpdsF4CBcJvjfYlLRHz4wwtTZDGCfPSjaSFqMNjmBlsFRhYJP/axhUhSnyDf+lbyoViF4kOb1QnpdXPiibVJUo8gZvJueMPqQg4GXS1WfFR+//taJKlHED4Ng9H7hcHTn94SQb7znWHltY83xwUvGKFbUFjKnyAHHtivO6ePxmxKZrYrLGUE+fnPkyNvUwoM9TZ783HCZsOCUkaQ44+PsOw8GLKfGFi3+chHCugRUUaQN7yhn8AMhB7Z7TWvaZAghx46amgAvZ9YHHJIgwQ56KB+gjKQeWQ3NiwoZa+Yl7xk1NAAej+x4LJYUMoIIn6jD8FKA3mnk/f0p4943/sK6FHaSf3udwdP9D6Tj4c8GxaUsieIaHfubX0GaZ1lZ7vCcM8ygmCe+IzB17R/NwmbsV1hKSeIBu561/4BtM5PDrqzWY1SnSAeTTle9NvfHhbs+kQ4oZxsprBhwWumOkFk3PnVr0YcfNObIs585uFJ0nWisBFb5cKGbFmxVCfIn/4U8bnPRfztb6Oqn/vciNOdbiBJV0nCNmyUC9uxIVtWLNUJ4tH0ohdtdKn3qDJ1O5CkezcJmzzzmRtfJ7IpsGHuKlQgSXWCqExuLgt2k+WFLxwm0Lr0FDGZySaThe3YsKCUE0Q8qBQOk0WM6I47du9O6pLh2pCFDd761knrJJuxXaMEecITEgFElk8rZuluecuBJG0QYVobN795BJfQaYXNXMOGBaXsCfKkJ6VGTNn+5CfTm5EGUsfo0pceiDLNiE18B2uYz+p8slVO1sOGBaUeQSgpbdT4iGayUQ6yD3pQxLnPPRClCVKoE7YwnueMzEZslWVojSAafNzjJmmx7f+f+EQScJgzGRkpG6vuEZaMDtvNymMfu7HdVglCQZ7SVRKYiBMV/T+s42w0WAlJYAfDKjG3bCKZ72T9rROEAPe5T/UEa1JWP/7xKWxzmD/Z1oCTBuXDIXwSZlWTxOgH3ute0+teCUEoJceniZiq5Wc/i3jjGyP22WfIDjBJCv/LmAAbcxewqlq+970IOUKm1em7lRFE43KEvPvdVVVJ55mNNTR73esi7nzn9Z5LMYcBA1jApGBR7X9gwn6zPC0rJQiSnO1sqWdt54M6xVzKe96TUlRf/epbe0FQZ5OO0nHTudDb6//wwtpoBvaznhz5+5UTJAti3P3851fvm/xf27E//vGP1FN/5StTMtnrXS9ip536SRpkIDsdJMalk1EIHesWiXVhnOc4Mvbzjp0hSBZS6gF9jT/+sS4Mo+v0zCW953j7qlelYbatN655zYjLXjbiPOfZ/A7KcjV1JANZyEQ2UwFkfe97k+xVRnwjjaf/Jf2GJXzYlurROYJkBdw5b35zxK9/PV3put+6A5HPO9vwTxvyv1tl3m+/CNPPV71qSuRrNKDzd5GLRMgKeK5zRZzjHOnRbAhpVOXjb49rvznHua5xrTokslWnurWhLW1qmwxeFWRa5OkwDQ/Yvf71Ede9bjkxsh0aJcgTn1hfMAIasl3jGhFyVXz5y9MgWO53nKwtLDKWu86mPt7XX/1qxKc+leJU5Vizf8u73pUWuSx0+dt3fhPL6lzXuFYd6lKnurXRdLEh0dOeFnGVqyzuWsGGBaVsqt02XJmJix7Pe97UYxcr+qMfFYi8JqfCBDZGNbBaFO98PRsWlDKC2MskN7TMo4x8Zgjf8Y71JgtSwAAWMFkmxrkuNiwoZQQxFGt69lMHD0BWJ+X6/MUvCtTp2al0oyNd6Uz3bMgmjmzHhgWljCBf/3q73uy2DbHXm6n8Zz0rdQCtXJpK7lshM9l1YulCJ7q1uTUK73Y2LChlBOHLeJvbNMvyeXeOkcXFLpYyLO67b4QOl+EeR1wjh5qZ/Arw2vxUHVjT3WQiGxnJKisk2atMZs3DYJHf2K7AH5WyZQRxxdvetjqCzAPHUHT33SPucIeIBz4w4lGPShsYmX9gLMPgn/40fbj+IxNjurONRvhNmKPw8bfv/OYc57omX68udapbtLy2tKlto7SubmbAdoWlnCAYaPw/z1hd+s3Q2mOccw3D+fDAQqbrXCfiRjeKuNnNIm5967TgaNHR377zm3Oc65p8vbrUqe4u6TpPFjYrfHrgUnWCWDjKs4Cf+czg1zHPGF37zcQfmylsWLAIWJ0gorHGd4/mVt+nO6hrRmtLHjYaD4Fgw8Yi677ylY2PqUc/uj+P2LYM0rV22CgXrxg2nOXcnM8bO1Z/glhXsBf9D384ulxHbv/9B5J0jRRZngMOSJ3tbDG2Y8OCNaLqBNHIIx8Z8c535ubS0eOKO1wWajh2Aws2mXyVsB0bFpQygjzkIWkEkzur4w0973lDiEMXbg4jLLaYLGxmJMOGBaWMIFip03PUUdObOO64tAzeBaDWUQYuCGwwrVjjOcMZ0tN+2u8zvisjyJOfnB6fV7taxO9+N71Kk0lYevazd+NRuw5EgTXMYT+tsBVXAViwYUEpIwhnkwz4Ix4x3xcCk03tDkPhEWYZu2UdYQvjWU8NROCv8rCHjWRo1GFonCAeV0ccMZ+LfCatR5iJXBYoQz0JS5jCFsbzChuxVcatNYJo0HSzhCSbFeNurnIDUUaGygYrPcIQllXmMkyQTa4Wt0oQyvExqPpe46Z39NFpUWv77RcHqxTcvp4PKwuBsIPhZsVU+iz30NYJkkEXB3rqqZuJPvr9a1+L4P62xx4R5zznQJaMYz7CBDYwglXVwgaSxOR6Jo8rIwhBKMTBtqRQiFPwU56S3PjH35eTym31/+kulAEWMCm54WAOezaYh9NKCUIwTjE8pmYNg+eRh++FYCIueDIVrcOO3nSkK53pDoPSAmuYw34eOfy2coJkAc2VTE7LlyouzODtb09KZY+sPucZIXv2iGMoutFxkQJjWGfcNzt2hiBZ0L32So/LRUBwrfG8wCHbwQtbfMxj0hwAcLoSVZd1ztF1ZDNPQVYyk50Oy4il8QqCbW6z6rFzBCG4CDX5KhaNRZ0kmVVJj9dTTkmJ6oU4GtpJ1HaPe6T3sWh3BPIo57TLeHWeQq5xrTrUpU51e+drS5vaJoOk+WQiW8HK6aR62/yvro9/PGEJ06qkGD+vUYLMGjqNCzDvbwFAhmtyXsyaFt4GlZpfWMn0PucgI7zg5JNTNJ9IOcNFKRZe8YoIu2iJFZF0dvzjO785x7muca2IQHWpM0fZTa6a1hR55mWwghnsFg2iYsOCUjbVntdi5pGg6m/uPtP1Hrs1fCULdOznqTCBDYw2y/lRFXPnVZ2zOg21MoLoaZcIU+Vc+/Da8Ncjmqd403djl+nCm14glcRzMGlij2I2LChlBLHMX8Xodc8xD+CdzhPqmGPSFhbTfE8KFOz0qXSzTQdd6XyDGzS/uDnLVWMGUGUE+dKXkut/XQKUXGelUmfQNlo6VoZzJ5ywcUuSGUp19muxNXTQn6ET3ejY1oq3sA02LChlBPEIvOlNm32KzCKRRSdrEte+dsT9759mG61m6jQaMVRZoygAZqFTyUImspHRzCiZyU6HyQW0WTov+3u2Y8OCUkYQFb/0pashyCywvKcld5HRx7xAjqqTm/zYY1M87C9/meYfTF2LlqvTKXaNa9VhLkOdYm21oa0cXUcGspCpiT7ELByqfM92haWcIIaOAKgi0KrPsS2GDEEerRe4QMrlJWDa1LY93MzN3O9+iVQWuIQI+Pgb0fzmHOe6xrXygalLneruyz7CbFZjGr86QSwh5xlAE0HrvKi2auKXts9WecdLNmwksi7PWuZHlPdqqaDD+avBjK1yKZzdrf4E4cH0zW+OniLex8P2qKsxeMmNxkZspXh6fOMb1bzRTiNUdYLo/UpnOT5FbrrZYlSJwMO57eF129tuzNDEdkZVBSOZ6gTBKKuSkzsN6NGP70cyEKA9AszDmk3Gg+3Zj+3M0haUMoKIw73nPbet3rify2FbEz7zgFn339iALabNC1l1ZsOCUkYQ7LPsffzx05uw1H2hC3XjDlpHosCeDaYVNmO7Rp8geTX3xjeevagm4awU1OtooFXqLCsS7KcVC6BsRr5GV3OtH2QQDj54mijpO4tQYjdKXOFyvcNxhHEVLGAM6zxHNc0qbJXratRhaJwg1hOm7c86LqDdFqXdHnbAHBkoG2rRI0xhO2v30WwHNhpf+2mNIBS86EWrJWblmCvX+MUvvnygFgW6b9fDEJZVnJ1tMLTDDhsxb5UgwBVZLmtNlfLjH0ccemjaRKcvaxhdIBCsbDwEOxhWKWwyLcNC6wQBoN4xT6Wqc/xm9uz5cu97p9fPMDzeeJfDFCZeIzCCVZ4N3Ywc+iICttlkGrlXQpAsiPTSNvwpKTIkv+UtadX0MpeZrlSufx2OMLCCDJPSLcpgzwbzcFopQQhmsx0do6pPk3Ey8RaXCcdSu0fqeOdqntJ9/k1qbrrSme4wKC2whjnsN8Ni5QQhoMStHGcW2TTIegEHXrEmtvm0PYb8W5sB0PXf6UAXOtFNgtuCtZFtuANjWMO8iu6dIEgWVP50nlYl++lug8BpX0i5aacCm+yI7bBIKK2S97SAptxmV45kIhsZyUpmstOBLosWmMIWxiU6d4ogWXDudwTjoreswgWQ+5/3rkUobn8CmKVbsvcKD6qdd053qylod+6sjluWs8pRHepSpyeBNrSlTW2TgSxkIhsZ67g4zsIJhrCEaRV5J8/pJEGykMbwAoFEqDUZ/yItk5VMO1a702xpbv85ux3YfJAR5d0Y/5iCtkOlj7/Hf/O3a1yrDnWpU39BG9raLBXULINX+R5WMIPdonNJjRIkr8Vkg9c9iivdc890p9XplFUBdSucAxtPI1jVjcWdtFGjazHuoskGF/3fbOwtbhHx2temUIGtYNhFdBAuAQuYwGZRfCevZ8OCUrbcb2w+2eAy/weId7nEeAJ8Jh1eChTrzal0pCud6d4EKcZtxIYFpYwghmRtjRjMD9hAWIJYPg52KbArZJ9DMclOB7rQiW42LGprmzK2y/vGVCRJGUHEVSyy6/M4k0v+lklRHMrlLhexzz4pUs0St46iHQy6sFfdJOBkIhsZycqznOx0oEvTu4dOw5ftCmNjyggCBAtG0xpv+ztrFe4IvXozkbYSE9540EEpl4ZEK1Y8ufkDxWTUPJ+JSQPP+l8d6lKnurWhLfk7tE0GspCJbGTsyloT2xWWcoLwZDcB1DYhStszX8E4ouAYarfd0j50e++dHu02JnBXH3JIxGGHpR0S7JKQP77zm3Oc63XgWnvZqUud6tbGMuZXSvUrPZ/N2K6wlBNEAzLulAo4nL9azNisRqlHEJ2t/fZbrcID4arjz1Y1O/f1CIKJottX0WEdiFGdGLBiI7aqWeoTRIN2mN511zKBBwO3h9eVr5xsVJMcLluMIGow8zfs4tCe0aveYGzCNguWxQlCAEO9292ueyBVBXOrnccWVZyaK5BnOQTRkNVMbvhD3pDV3SiwZ4MlriwvjyCZjVztvfu22l3ZdX1gDvsll+UThIB6zWI3quw+0HXguy4fjGG9wEhlHqeaIUhuUayoMfhW8CXtGlFgCttZ8bjZBgsemyVIFu6zn00LVV3L+tc1o1eRB4YW/WDaQmmHIFkRS833vW/y5awCxnDOqC/H/1XWxcLl+gx93WO7BMlSGp8ffniETYLa8oXoI9lgAyNYLWFOI8NfclwNQbKEwgntIfOMZ0Tc5CYp72gfDblMmeVehQVMYFM15DJjuuTjagkyrgwgPvnJdLdYUt9pp9HjdZkG6GJddKWzJwUMVkyKcbN0hyDjUgklFFPCf5Kr/y67pBznXTRuHZnka6cT3ehI1zqhquOYNfR3Nwkyqawkvnw5xaRIlW3nJYuEO+7Y7deS1wUZyUpmstOBLsvcqmwSryX+3w+CTFP4t79NPp/HHZdiR7j7CYCWq0u4o5zqkqfw+GpieK1OdWtDW9rUNhnIIp6FbPxSydrT0l+CzAJc+keude7SE09MRjryyBQV9+xnp6g5LoQHHpg28eFDuu++aWNCWYl9pIv0nd9s9ONc1wg6UocIO3UigDa0pc1pqSdnydmT77ceQeoA7/3P40qIo4+/O9onqKPeItcMBFkEvTW4diDIGhh5ERUHgiyC3hpcOxBkDYy8iIoDQRZBbw2u/S/CuZzJ/bKtagAAAABJRU5ErkJggg==;" vertex="1" parent="1">
          <mxGeometry x="498.2" y="1357" width="86" height="86" as="geometry" />
        </mxCell>
        <mxCell id="cQReViLgm3DgUaf5CIKt-64" value="" style="rounded=1;whiteSpace=wrap;html=1;strokeColor=#FF3333;fontSize=17;fontColor=#FF3333;dashed=1;glass=0;sketch=0;shadow=0;" vertex="1" parent="1">
          <mxGeometry x="14" y="1900" width="800" height="830" as="geometry" />
        </mxCell>
        <mxCell id="cQReViLgm3DgUaf5CIKt-65" value="" style="aspect=fixed;perimeter=ellipsePerimeter;html=1;align=center;shadow=0;dashed=0;spacingTop=3;image;image=img/lib/active_directory/database_server.svg;" vertex="1" parent="1">
          <mxGeometry x="410" y="2230" width="164" height="200" as="geometry" />
        </mxCell>
        <mxCell id="cQReViLgm3DgUaf5CIKt-66" style="edgeStyle=orthogonalEdgeStyle;rounded=0;orthogonalLoop=1;jettySize=auto;html=1;fontSize=17;fontColor=#FF3333;" edge="1" parent="1" source="cQReViLgm3DgUaf5CIKt-67" target="cQReViLgm3DgUaf5CIKt-65">
          <mxGeometry relative="1" as="geometry" />
        </mxCell>
        <mxCell id="cQReViLgm3DgUaf5CIKt-67" value="" style="aspect=fixed;perimeter=ellipsePerimeter;html=1;align=center;shadow=0;dashed=0;spacingTop=3;image;image=img/lib/active_directory/windows_server.svg;" vertex="1" parent="1">
          <mxGeometry x="40" y="2220" width="155.8" height="190" as="geometry" />
        </mxCell>
        <mxCell id="cQReViLgm3DgUaf5CIKt-68" style="edgeStyle=orthogonalEdgeStyle;rounded=0;orthogonalLoop=1;jettySize=auto;html=1;fontSize=17;fontColor=#FF3333;" edge="1" parent="1" source="cQReViLgm3DgUaf5CIKt-69">
          <mxGeometry relative="1" as="geometry">
            <mxPoint x="90.00000000000023" y="2260" as="targetPoint" />
          </mxGeometry>
        </mxCell>
        <mxCell id="cQReViLgm3DgUaf5CIKt-69" value="" style="rounded=0;whiteSpace=wrap;html=1;fillColor=none;strokeColor=#FF3333;" vertex="1" parent="1">
          <mxGeometry x="90" y="1980" width="340" height="170" as="geometry" />
        </mxCell>
        <mxCell id="cQReViLgm3DgUaf5CIKt-70" value="" style="aspect=fixed;perimeter=ellipsePerimeter;html=1;align=center;shadow=0;dashed=0;spacingTop=3;image;image=img/lib/active_directory/generic_server.svg;" vertex="1" parent="1">
          <mxGeometry x="175.8" y="1991" width="44.8" height="80" as="geometry" />
        </mxCell>
        <mxCell id="cQReViLgm3DgUaf5CIKt-71" value="" style="aspect=fixed;perimeter=ellipsePerimeter;html=1;align=center;shadow=0;dashed=0;spacingTop=3;image;image=img/lib/active_directory/generic_server.svg;" vertex="1" parent="1">
          <mxGeometry x="200" y="2010" width="42" height="75" as="geometry" />
        </mxCell>
        <mxCell id="cQReViLgm3DgUaf5CIKt-72" value="" style="shape=image;verticalLabelPosition=bottom;labelBackgroundColor=#ffffff;verticalAlign=top;aspect=fixed;imageAspect=0;image=data:image/png,iVBORw0KGgoAAAANSUhEUgAAAH0AAAAzCAYAAAC60gc5AAAR8UlEQVR4Ae1biXcUVdbPnzDDkq2700k6IRshISGQQNgFBhABBxFxEEfcWdVx3AZUZkRHFBSQJMgiH4qMbB8Miooibiiy6qCoMICj8EGS3qu7a/995750Vap6SRqcAAe6z8mpV1X3vXff/b27vHsrKUj+rjkJpFxzK04uGEnQr8FNkAQ9Cfo1KIFrcMlJTU+Cfg1K4BpccodquvzdMUi790DY8wmEjz4GPv0cyvnGa1DMV9aSU9RdM4Gz+zqEK9/tdwGpdvC2fPDWPKCoAsKWbR0yV3LQxCWQoq7sDmzsD3n7FMiHVwGeHwCZT3yENih998yAv6sNzVYHmi25QEEZhO1vt9Ej+epSSCCFb+gBvr4E6opi4H/KgS1DIawfCemjhyHvewnq6feA5mOAGLhgfnz3zoSvqw1NVgeakqBfsPw6qkML6AS89ldXAnlFCdBQAKwtBf5RDbxRA/HNkVA+eQo4fyhhXpKgJyyqS0oYDboGvnatL4XQUAqpvgh4rRR4qx/Ujx+G6j7RLqNJ0NsV0WUhSOFfrQDfUNqq6RrY8a713YE1FAcMgXrqvTaZToLepngu28sUft0Q8HUliYMe3gxSXSGwZQDUEzviMp8EPa5oLuuLFLx/L0LL8i4YdIoBhFcKgG3DoZz7JuYikqDHFMtlf5gi7X0e0oqCiwKdbyiDXJ8PeeedUBU5ajFJ0KNEckU8SFFOfwy8VX1hft3g70Pk4zf0gXxyV9SCkqBHieSKeJCi0vl702gIdYWJaXt9Cfi6YhOtsrII0s7pUQtKgh4lkiviAcu9y4dXA+srEKpvJ4qv7w7+tf4QXx8GrCqB3FAMvr4HxLpiYNMIINBkWlRM0LfFD/xMnZM3HSaBloKLLEL5YDqwsqht4OtLIK7uA3n/S5COboC8cQw7uwsE+sZaqD9/bmI0Fujirt0tNM3NkN/eCW7+AgQefASUsuX+8hTEV1dD/fobQFVNY130jdMJad9+YO8+gGsnqygIUL7Yh9CyOnCPz2M8Bf78OALPLoT84UeAyx2XDX7TVgjPv4jAoiXsT3hhMYTN/xuXPvKFsPdLqIuX6v2DCxdDIlnwcVLiZ85C2rIN3Ly/IjDrIXDTZ8P/6FzI694Evv8hcnjTvV5lU31noW6bAKwqbhv4umLIa8qh/msNIAahfLUI+EdfYEMl5G9eNw0eCTqXU4TAsjr4582HUjMQ6FYKPiMb/lQb/Gl2+LtYINvygbLeCI6bCHn7DlwM9KqiAO/tQuiOe+CrqIaa1x0YMQbyyVMm/rQbVRQhr1uP4PDrge6VEC0O+LtYW3jqaoWY2VI3EGuHQFjwdyjnz2td9Wto1RogvxRqVjfAXgBYHEDNIMg//KjTxGuoggDuulEtfewFUKm/LR/+u+4HW4uho3rse0gPPQqxogbI645AVxv8qVnwp2WB62oFcosgl1QiNHkq8PGnhp6tTR10eqR6f4ayYwrwehn45Wa/radpKYirKwHWlUM59AobiSVpNvUBnQSMPxPoVgcarQ5w+SUIWXLRlJrF8vEsL0+5ecNfY0Y2vKk2tgDx/jmQG81uwzhHZFs68jX4m24F8rvDl2qDM92Opq42oE8t5FOnI8khHz8BcdIUJmh3qg2NmTkmXnS+LLloTrVBzMyB0G8I1D2fmMYi4IIjx8LVxar3D6Ta4HvoERNdrJvQpi2AoxiNJBeSU1oW0Ls/402jp80vNayE0qOKbcgmWleYXucxXONoysiGp7MFKKkA/6dHoQbMFs4EOk2gCn6o+58HtgwCXi2Kn7hZTia9GsrRNxlf0oF6SHv+ovHIrpGgM+YihZqZi+bMHLhoARHvCACuiwXC6HGQz5wxjR3rRvjnO0D1QPi6WMzgpdmB6gFRoIvkRgYOg7dTpi5wxmOYF5fFwXgzCpc2rpME2rMaIoFl+IU2bARyilrHIvCqaiEej5+yJivj+90N8KSGC1PWFivje+BhfWQCPDRvPpBdiOa0LH1TafJ0kvxIdpHyS7cjlJoFZco0yO5W1xQFuj7TuYNQPpgFbB4MrKVgrQA8BXKG45pQVwRsGgyl8VvWTTl7QO9OjZighzWaAPWRUAp6IFhUDpejGOhRBZ40yrAwErK3UwZk0sZg0DS+8UbY/RFQ2gvOrq2axoSSlgX/bzOAfkMg//uk3kU6cxYYNQ6uThnMAhEtA5S02ZbHeGnOKYRQUgE1rwSe1KxWMG15aOxiASpqIBo0Xg3xCAwbDbIYbG6rA6Ttwcfn6fNGNoJbtwF5JfombUy3s3Elg18Wl9VDteWDLKA2LmlziNxO90p4CsvgLCxjPAtUxk7Lal2TJRdCejZCd08HyO0BCXwC3XwUylcvAttvavHdZNYbClk5ljaAsqIQyvt3R66F3ccCnQk2PZuB7ZlyB+R33mVgyKd/gnLwEALPvQCx72D40+26kMnsyZZccM88F3MeZgVGjEFz50xdKCSgUGYOGysw80Fg7etQvT69Pz/zQXCdLa3CycxBkCzLoOEIvVIP6fAREE/kk+VNW+EdNxGKoxgkbCZ4Wx6cnTIgDR0FxePRxw2uWw/kFOq8kxtjVub0TzqN3pBlBMfeBLdho3JdbeBm/0knEQ8cAnr1Q6NhIzlTbRCKykHWQPn8C8g//wLlzFnIh44g+NwLCFXVwtPFalob+frQ6rVs3Piark8bbig8cO4g1MOvQNg8Cdg8FFhbBmF5AbCxBvLxnZE9Ymo6+VhPbhGkzVuj6LUH6i9n4J8wGYGMbJ3x5nQ7hB5VUGIIj3v4MQQNgiNtkXKLIcx9Gsr/ndOG1a/i3i+ZVjSmtwBIm0qw5iE44wHAAKDegRqqCqn+VfhteWjWgLc6mI/nFi3RSdVAEMGhI+GmmCVs1YTMXPieeFKn0Rr8jndMWk5+GuV9IB1tsZyqqsI7eSq8nS1osrXEPQQ4Bg2H9Kn5pKSNSVfl1Gkok6bATW5Oi5XIMg35HVS/PwFNN45maKuu41APLAU2jQLW5EPaOpkkY6CINu9k0tWCHmCBi4ky+kbx+RAaNc4kPIqiuYWLTcTKT/9hQU9T2CXQHFJ2AfjFS010xhvvjDkIGEChk0No6p1Q5RbzZ6SNbIcWL4WY1U3XZBcFawOHQQ2FdNLg6rWQs7rpoNOGDZX3YRqpEVFUzo2/mQGjbQ6OTjH3zdJIIB39DqjsC9rEjCbdDrGkJ8R9X+k08RpyUxOEwSPQbFAGNbsAwts7Lx50bTKVOw/1syeBXSOhnjusPWbXSPPuS81C4I57TDRt3Qi790Du1kOPUr1pdnjG/N60uYKrXmPmVBMcmUppyrSI7dc6i8pxcFXVwpUWFmRGNhQKyhI4WrFRZBncyLFwa3FHZg6LJUTKBYR/NIev/1A4ta+GrA5IFge4+c9oJODffR9qt1Ldl5PboJhGPPK1ThMgN2PN0zcPuSv/Y3P19+01SLmknCJdfq5OmfDPfujXg65PfGw95P3L9VtqmEAPfy7FX8g3cpIE//AxaNaOQWlZkPsPhdLs1OfxTZ8Dv7abaQ46+78d7Wq0DtK330Et76P7ZjKBvj/8UXud0DWwdDnk7AIdDNLq0FpzjoKrXwnBcKSi4EqsqtW/BuZvuQ0uQwzC0Vmbgi3DzzdjDjjD5lKKyiEdOGigaLupeL0I9B3ccmylQDXVBm7gsP8e6GTYlabvAEXUOTGC7rTkItCtFPKJf+vvE2lQpo6d68k3pduh9OoHyaCVnvE3wxf2zXR08RT3hHL2bNyh6XNsini1441kywf3t2fj0sd6QZ9zyxTUhUENpdkReOElEyn5TuW6UWjSNqzVASEjB8FldRD3H4TsaI3YmZaXVIIFbYZRPDf/AYHwHOQiAlX9YiaGDF2imu4bb4ari0XfoE22vP8e6FGzkabPfKAlCKGzrSUXHkcxCzJi0cZ75ps+G4ItbOLS7ZAr+0L+viXLRX7RPWIMfOHzqSvdjubKGqhtpEvJZVDSQgNdyS4A99zCeNPHfC5+9jmE7AL2lS+5lVBGNgLPvxhFG1jeYNJ20jR/zUDmHujIp7mkAGUj/xh9AvJMvLUVdMq49e6vW4qoyeI8cE+4xQy61dGxoHNznwafEc5wke8rqTCda+PwaXrsHTuhNctFkWvtdfrCGejDrzeB7iTQnS7TGMYb5jN7Vuvm3dvFCu89ZrNqpI/VDtLxz+Ar44GuuNyQBg1vDaZo89LGpOOXtpFJLsU9IXwR/b8H3ntngNOCODp+FveE9M3RWCzFfEZ5DV/tEJAy0AZrpJiod/+OBZ1/YwPLD2tmMJieDe7PT8RkMNZD6dtjUMp66wB50u3wjxqnJxkuBnTF7YG3V1/dz1HUL9cOgdzUHIuFmM98k6fCpwWCbWg6dfYvXgLRktt6dNKOUOErgeq59faY83CLXmZ9NYtASSNugTnVHbNj+CH/3i7I+d11N9T0m3T47p7esaArJ09BpqBJ263pdqg9qyEdbo1Q4zFNMULwzvtAEb+2aJ5Af+qvepeLAZ06u2+/qzX4I9AoMTN3vj5uWw1hx04oxqi7HdAVpxNUqGHaHQF4YwZpeQXEz/bGnFIi319YrruilqNfb0g/Ho9Jb3yoBIMQbpgAlxbkWh2svsBv3NyxoBMT/mn3sly4llwgbfXWDIR6rO3yX2DefObLtSIEBTtK91564oLGvljQ6bhEFSrNr1P2TnQUQ2hYaZRbVFv5bC98xT1bj3thEOOZd20ACvKocqdtXu3q7pwJ/rZpGln0VVHguv5Gll2jPpRo8aRlIThsNNQ4FUMaRPV4Id4/G1yaXbcwdHrgK2uguFwdD7p46AhQ1R+NYY1ljJNv7jsYwZeXQT15Wq+dE7NUtw7echt4WmQ480V9SMu9c1rTk2xxFMhdoE9nkqXEyKQpJm0nayRmFyB03yyoXx3QK1OqJAE/nkBw/gKWKKGMmJ7lShB0pbEJQvVAc02BfHlhGXgKLNv4CR/uhkom2iALT1cbhKpaBF5eBhD4kgRVkoHGRoTe2ADv4BEt2cxw5E+KQ7l7LhxsJp6GbYOx9l6FFi+BlJmrg8h2eqoNvMUBpaoW7kHD4R42mkW2lLGjRekaTru7swX84BFQIvzuxWo68St8e4zlxJspig6nOFkRKNUGtaQSrj792YZyDbgOSkUNghk5rOSpB2AGU92eptN83IKFkMLaSuv3UH6ASsAJfCwSeHwepMyc1kROuKhCBReSn6vvILj6DYFSOxRyTiHImmryow1KdXZhwmR9I18S0Akc8bG5UKhSpCUbNKGl2+Gj9Cod6+idoTxIjFOZFINHQIwRtf4a0AmI0PsfsNKn21CcYGY0I5uZcM7igJf40WISjWdD0oXoEwGdagCknawCRlpOSaRdH7anL+w91epDd8+AQOY6kpd0O9wUDFKugk4FBt5IfvSRBT9sFERDzeKSgK6tTKLCRFlvprma6WZarwlTu1J5tasNqi0P4viJ+rlcG0e7/lrQaRx575cIDRjGLFGk0CJ5I4FT9c9Hm1fjNUHQaS7f08+wtCptslCCWq6tVQnxkJ/8G1BUzj4waVd+nS3MsvBUyaQysuF3SUFnWbu9XzJ/qn2WFLLQRwmZcHaxwN3ZAqoH0xk4RF+n1K0ADIUMA9+sSaC7+g9FoFMGnHTe/k06PKWVpjRtZJ9Y96rTCeXZhZCqB0CxFzC3QylS4onKp3SsEq0OoLwavlkPwnf/LHCd6L2V/Ym/TU8oq6f8cgbBsiogtxj8O+/GYqXNZ0x+u/eAGz+RgU88EW9O4qVzJjvp0DMqASv04cm69VAoJon4XVLQTXN//S8EFy1hmSjPDb+Hh6LUmyaDnzsfKuXOPV4TeawbAp0ACIwY05KZGzYKnslTWfQai77dZ+fOQ3prM4RHnoB7/ER4Ro2F58ZJ4CgVvLwB9H0a/fit26HeMIHNSRlBYcQYhF5b1+7wREA1cHH4GD3XkFCnGETq/oPglyyH97ZpjEcP8TtpCvhn/g6FPuIMxfmgMqGPKGJMeEU9okCI/uirEO3a0QyGv0Bhc2rtBAIyYks69j34DxLz5R21jMun6R21ouS47UogCXq7Irr6CJKgX32YtruiJOjtiujqI0iCfvVh2u6KkqC3K6KrjyAJ+tWHabsrSoLeroiuPoL/B0Tv7snK8VdhAAAAAElFTkSuQmCC;" vertex="1" parent="1">
          <mxGeometry x="44.9" y="1940" width="125" height="51" as="geometry" />
        </mxCell>
        <mxCell id="cQReViLgm3DgUaf5CIKt-73" value="Tienda" style="text;html=1;strokeColor=none;fillColor=none;align=center;verticalAlign=middle;whiteSpace=wrap;rounded=0;fontColor=#FF3333;fontStyle=1;fontSize=17;" vertex="1" parent="1">
          <mxGeometry x="242" y="1955.5" width="48" height="20" as="geometry" />
        </mxCell>
        <mxCell id="cQReViLgm3DgUaf5CIKt-74" value="T2A" style="text;html=1;strokeColor=none;fillColor=none;align=center;verticalAlign=middle;whiteSpace=wrap;rounded=0;fontSize=17;fontColor=#FF3333;" vertex="1" parent="1">
          <mxGeometry x="87.39999999999998" y="2430" width="40" height="20" as="geometry" />
        </mxCell>
        <mxCell id="cQReViLgm3DgUaf5CIKt-75" value="tLog" style="text;html=1;strokeColor=none;fillColor=none;align=center;verticalAlign=middle;whiteSpace=wrap;rounded=0;fontSize=17;fontColor=#FF3333;" vertex="1" parent="1">
          <mxGeometry x="107.4" y="2180" width="40" height="20" as="geometry" />
        </mxCell>
        <mxCell id="cQReViLgm3DgUaf5CIKt-76" value="SQLCorp" style="text;html=1;strokeColor=none;fillColor=none;align=center;verticalAlign=middle;whiteSpace=wrap;rounded=0;fontSize=17;fontColor=#FF3333;" vertex="1" parent="1">
          <mxGeometry x="434" y="2430" width="50" height="20" as="geometry" />
        </mxCell>
        <mxCell id="cQReViLgm3DgUaf5CIKt-77" style="edgeStyle=orthogonalEdgeStyle;rounded=0;orthogonalLoop=1;jettySize=auto;html=1;exitX=1;exitY=0.25;exitDx=0;exitDy=0;entryX=-0.024;entryY=0.255;entryDx=0;entryDy=0;entryPerimeter=0;fontSize=17;fontColor=#FF3333;" edge="1" parent="1" source="cQReViLgm3DgUaf5CIKt-67" target="cQReViLgm3DgUaf5CIKt-65">
          <mxGeometry relative="1" as="geometry" />
        </mxCell>
        <mxCell id="cQReViLgm3DgUaf5CIKt-78" value="JMS" style="text;html=1;strokeColor=none;fillColor=none;align=center;verticalAlign=middle;whiteSpace=wrap;rounded=0;fontSize=17;fontColor=#FF3333;" vertex="1" parent="1">
          <mxGeometry x="320" y="2250" width="50" height="20" as="geometry" />
        </mxCell>
        <mxCell id="cQReViLgm3DgUaf5CIKt-79" value="Procesamiento" style="text;html=1;strokeColor=none;fillColor=none;align=center;verticalAlign=middle;whiteSpace=wrap;rounded=0;fontSize=17;fontColor=#FF3333;" vertex="1" parent="1">
          <mxGeometry x="320" y="2350" width="50" height="20" as="geometry" />
        </mxCell>
        <mxCell id="cQReViLgm3DgUaf5CIKt-81" value="" style="shape=image;verticalLabelPosition=bottom;labelBackgroundColor=#ffffff;verticalAlign=top;aspect=fixed;imageAspect=0;image=data:image/png,iVBORw0KGgoAAAANSUhEUgAAAIgAAACICAYAAAA8uqNSAAAUbklEQVR4Ae3dB7A8RREGcMw5Y0BRSxS1xBITmBUThjInVDChlBEMmLMoiAqYypyzqGDAhKJizpaKYgJMZQ6Ys7b1cxjv3v3v7u3s3e7tvtuputr37nZnur/+dndCd892sY7lP/+JyJ9//zvi73+P+MtfIv7wh/Txt+/8ls9zXMOy3ZbRmQH//OeIH/wg4vOfjzjmmIgjj4x48YsjnvrUiIc+NGLvvSP23DNi111HnytdKWKXXSIuf/mInXdOH3/7zm/j57pWHepSp7q1oS1tapsMW4hM/STIb34T8cUvRnzwgxGvfnXEwx8ecatbRVz/+hFXvGLEhS8csd127X60qW0ykIVMZCMjWcncw9J9grgbTzgh4v3vjzj44Ii99oq41rUidtgh4oxnbJcEdUhHRrKSmex0oAudevCk6SZBvv/9iA98IOIBD4jYbbeI7bfvPhFKyUMnutGRrnTuYOkGQf71r4iTTop4wQsi7nSn1bwiSg287PO9ougOA1j885+doMtqCQKIl7884u53X09SzCIZstztbqkTfPLJKyVK+wT5618jjj024sEPjrjUpbbeq2OW0et+DyNY6ewafrdc2iOIOQbDwj32iDjrWQdilBLmLGdJIyQYwrKl0jxBTj014mUvS0PAUlCG86ffSIbTMIVtw6U5guh4mkTSUx8M3QwGsIUxrBsqzRDkC1+IuMtdIs50pmaAGQg3whXGsIZ5A2W5BDE0O/zwiPOff6TAYMx2sDjf+SKe85y0hrREoiyPIKecEnHHO7YDxkC62Tjf/vZpHmVJJFkOQT796YgrXGG20INB28XGYiObLKEsTpAPfSjikpdsF4CBcJvjfYlLRHz4wwtTZDGCfPSjaSFqMNjmBlsFRhYJP/axhUhSnyDf+lbyoViF4kOb1QnpdXPiibVJUo8gZvJueMPqQg4GXS1WfFR+//taJKlHED4Ng9H7hcHTn94SQb7znWHltY83xwUvGKFbUFjKnyAHHtivO6ePxmxKZrYrLGUE+fnPkyNvUwoM9TZ783HCZsOCUkaQ44+PsOw8GLKfGFi3+chHCugRUUaQN7yhn8AMhB7Z7TWvaZAghx46amgAvZ9YHHJIgwQ56KB+gjKQeWQ3NiwoZa+Yl7xk1NAAej+x4LJYUMoIIn6jD8FKA3mnk/f0p4943/sK6FHaSf3udwdP9D6Tj4c8GxaUsieIaHfubX0GaZ1lZ7vCcM8ygmCe+IzB17R/NwmbsV1hKSeIBu561/4BtM5PDrqzWY1SnSAeTTle9NvfHhbs+kQ4oZxsprBhwWumOkFk3PnVr0YcfNObIs585uFJ0nWisBFb5cKGbFmxVCfIn/4U8bnPRfztb6Oqn/vciNOdbiBJV0nCNmyUC9uxIVtWLNUJ4tH0ohdtdKn3qDJ1O5CkezcJmzzzmRtfJ7IpsGHuKlQgSXWCqExuLgt2k+WFLxwm0Lr0FDGZySaThe3YsKCUE0Q8qBQOk0WM6I47du9O6pLh2pCFDd761knrJJuxXaMEecITEgFElk8rZuluecuBJG0QYVobN795BJfQaYXNXMOGBaXsCfKkJ6VGTNn+5CfTm5EGUsfo0pceiDLNiE18B2uYz+p8slVO1sOGBaUeQSgpbdT4iGayUQ6yD3pQxLnPPRClCVKoE7YwnueMzEZslWVojSAafNzjJmmx7f+f+EQScJgzGRkpG6vuEZaMDtvNymMfu7HdVglCQZ7SVRKYiBMV/T+s42w0WAlJYAfDKjG3bCKZ72T9rROEAPe5T/UEa1JWP/7xKWxzmD/Z1oCTBuXDIXwSZlWTxOgH3ute0+teCUEoJceniZiq5Wc/i3jjGyP22WfIDjBJCv/LmAAbcxewqlq+970IOUKm1em7lRFE43KEvPvdVVVJ55mNNTR73esi7nzn9Z5LMYcBA1jApGBR7X9gwn6zPC0rJQiSnO1sqWdt54M6xVzKe96TUlRf/epbe0FQZ5OO0nHTudDb6//wwtpoBvaznhz5+5UTJAti3P3851fvm/xf27E//vGP1FN/5StTMtnrXS9ip536SRpkIDsdJMalk1EIHesWiXVhnOc4Mvbzjp0hSBZS6gF9jT/+sS4Mo+v0zCW953j7qlelYbatN655zYjLXjbiPOfZ/A7KcjV1JANZyEQ2UwFkfe97k+xVRnwjjaf/Jf2GJXzYlurROYJkBdw5b35zxK9/PV3put+6A5HPO9vwTxvyv1tl3m+/CNPPV71qSuRrNKDzd5GLRMgKeK5zRZzjHOnRbAhpVOXjb49rvznHua5xrTokslWnurWhLW1qmwxeFWRa5OkwDQ/Yvf71Ede9bjkxsh0aJcgTn1hfMAIasl3jGhFyVXz5y9MgWO53nKwtLDKWu86mPt7XX/1qxKc+leJU5Vizf8u73pUWuSx0+dt3fhPL6lzXuFYd6lKnurXRdLEh0dOeFnGVqyzuWsGGBaVsqt02XJmJix7Pe97UYxcr+qMfFYi8JqfCBDZGNbBaFO98PRsWlDKC2MskN7TMo4x8Zgjf8Y71JgtSwAAWMFkmxrkuNiwoZQQxFGt69lMHD0BWJ+X6/MUvCtTp2al0oyNd6Uz3bMgmjmzHhgWljCBf/3q73uy2DbHXm6n8Zz0rdQCtXJpK7lshM9l1YulCJ7q1uTUK73Y2LChlBOHLeJvbNMvyeXeOkcXFLpYyLO67b4QOl+EeR1wjh5qZ/Arw2vxUHVjT3WQiGxnJKisk2atMZs3DYJHf2K7AH5WyZQRxxdvetjqCzAPHUHT33SPucIeIBz4w4lGPShsYmX9gLMPgn/40fbj+IxNjurONRvhNmKPw8bfv/OYc57omX68udapbtLy2tKlto7SubmbAdoWlnCAYaPw/z1hd+s3Q2mOccw3D+fDAQqbrXCfiRjeKuNnNIm5967TgaNHR377zm3Oc65p8vbrUqe4u6TpPFjYrfHrgUnWCWDjKs4Cf+czg1zHPGF37zcQfmylsWLAIWJ0gorHGd4/mVt+nO6hrRmtLHjYaD4Fgw8Yi677ylY2PqUc/uj+P2LYM0rV22CgXrxg2nOXcnM8bO1Z/glhXsBf9D384ulxHbv/9B5J0jRRZngMOSJ3tbDG2Y8OCNaLqBNHIIx8Z8c535ubS0eOKO1wWajh2Aws2mXyVsB0bFpQygjzkIWkEkzur4w0973lDiEMXbg4jLLaYLGxmJMOGBaWMIFip03PUUdObOO64tAzeBaDWUQYuCGwwrVjjOcMZ0tN+2u8zvisjyJOfnB6fV7taxO9+N71Kk0lYevazd+NRuw5EgTXMYT+tsBVXAViwYUEpIwhnkwz4Ix4x3xcCk03tDkPhEWYZu2UdYQvjWU8NROCv8rCHjWRo1GFonCAeV0ccMZ+LfCatR5iJXBYoQz0JS5jCFsbzChuxVcatNYJo0HSzhCSbFeNurnIDUUaGygYrPcIQllXmMkyQTa4Wt0oQyvExqPpe46Z39NFpUWv77RcHqxTcvp4PKwuBsIPhZsVU+iz30NYJkkEXB3rqqZuJPvr9a1+L4P62xx4R5zznQJaMYz7CBDYwglXVwgaSxOR6Jo8rIwhBKMTBtqRQiFPwU56S3PjH35eTym31/+kulAEWMCm54WAOezaYh9NKCUIwTjE8pmYNg+eRh++FYCIueDIVrcOO3nSkK53pDoPSAmuYw34eOfy2coJkAc2VTE7LlyouzODtb09KZY+sPucZIXv2iGMoutFxkQJjWGfcNzt2hiBZ0L32So/LRUBwrfG8wCHbwQtbfMxj0hwAcLoSVZd1ztF1ZDNPQVYyk50Oy4il8QqCbW6z6rFzBCG4CDX5KhaNRZ0kmVVJj9dTTkmJ6oU4GtpJ1HaPe6T3sWh3BPIo57TLeHWeQq5xrTrUpU51e+drS5vaJoOk+WQiW8HK6aR62/yvro9/PGEJ06qkGD+vUYLMGjqNCzDvbwFAhmtyXsyaFt4GlZpfWMn0PucgI7zg5JNTNJ9IOcNFKRZe8YoIu2iJFZF0dvzjO785x7muca2IQHWpM0fZTa6a1hR55mWwghnsFg2iYsOCUjbVntdi5pGg6m/uPtP1Hrs1fCULdOznqTCBDYw2y/lRFXPnVZ2zOg21MoLoaZcIU+Vc+/Da8Ncjmqd403djl+nCm14glcRzMGlij2I2LChlBLHMX8Xodc8xD+CdzhPqmGPSFhbTfE8KFOz0qXSzTQdd6XyDGzS/uDnLVWMGUGUE+dKXkut/XQKUXGelUmfQNlo6VoZzJ5ywcUuSGUp19muxNXTQn6ET3ejY1oq3sA02LChlBPEIvOlNm32KzCKRRSdrEte+dsT9759mG61m6jQaMVRZoygAZqFTyUImspHRzCiZyU6HyQW0WTov+3u2Y8OCUkYQFb/0pashyCywvKcld5HRx7xAjqqTm/zYY1M87C9/meYfTF2LlqvTKXaNa9VhLkOdYm21oa0cXUcGspCpiT7ELByqfM92haWcIIaOAKgi0KrPsS2GDEEerRe4QMrlJWDa1LY93MzN3O9+iVQWuIQI+Pgb0fzmHOe6xrXygalLneruyz7CbFZjGr86QSwh5xlAE0HrvKi2auKXts9WecdLNmwksi7PWuZHlPdqqaDD+avBjK1yKZzdrf4E4cH0zW+OniLex8P2qKsxeMmNxkZspXh6fOMb1bzRTiNUdYLo/UpnOT5FbrrZYlSJwMO57eF129tuzNDEdkZVBSOZ6gTBKKuSkzsN6NGP70cyEKA9AszDmk3Gg+3Zj+3M0haUMoKIw73nPbet3rify2FbEz7zgFn339iALabNC1l1ZsOCUkYQ7LPsffzx05uw1H2hC3XjDlpHosCeDaYVNmO7Rp8geTX3xjeevagm4awU1OtooFXqLCsS7KcVC6BsRr5GV3OtH2QQDj54mijpO4tQYjdKXOFyvcNxhHEVLGAM6zxHNc0qbJXratRhaJwg1hOm7c86LqDdFqXdHnbAHBkoG2rRI0xhO2v30WwHNhpf+2mNIBS86EWrJWblmCvX+MUvvnygFgW6b9fDEJZVnJ1tMLTDDhsxb5UgwBVZLmtNlfLjH0ccemjaRKcvaxhdIBCsbDwEOxhWKWwyLcNC6wQBoN4xT6Wqc/xm9uz5cu97p9fPMDzeeJfDFCZeIzCCVZ4N3Ywc+iICttlkGrlXQpAsiPTSNvwpKTIkv+UtadX0MpeZrlSufx2OMLCCDJPSLcpgzwbzcFopQQhmsx0do6pPk3Ey8RaXCcdSu0fqeOdqntJ9/k1qbrrSme4wKC2whjnsN8Ni5QQhoMStHGcW2TTIegEHXrEmtvm0PYb8W5sB0PXf6UAXOtFNgtuCtZFtuANjWMO8iu6dIEgWVP50nlYl++lug8BpX0i5aacCm+yI7bBIKK2S97SAptxmV45kIhsZyUpmstOBLosWmMIWxiU6d4ogWXDudwTjoreswgWQ+5/3rkUobn8CmKVbsvcKD6qdd053qylod+6sjluWs8pRHepSpyeBNrSlTW2TgSxkIhsZ67g4zsIJhrCEaRV5J8/pJEGykMbwAoFEqDUZ/yItk5VMO1a702xpbv85ux3YfJAR5d0Y/5iCtkOlj7/Hf/O3a1yrDnWpU39BG9raLBXULINX+R5WMIPdonNJjRIkr8Vkg9c9iivdc890p9XplFUBdSucAxtPI1jVjcWdtFGjazHuoskGF/3fbOwtbhHx2temUIGtYNhFdBAuAQuYwGZRfCevZ8OCUrbcb2w+2eAy/weId7nEeAJ8Jh1eChTrzal0pCud6d4EKcZtxIYFpYwghmRtjRjMD9hAWIJYPg52KbArZJ9DMclOB7rQiW42LGprmzK2y/vGVCRJGUHEVSyy6/M4k0v+lklRHMrlLhexzz4pUs0St46iHQy6sFfdJOBkIhsZycqznOx0oEvTu4dOw5ftCmNjyggCBAtG0xpv+ztrFe4IvXozkbYSE9540EEpl4ZEK1Y8ufkDxWTUPJ+JSQPP+l8d6lKnurWhLfk7tE0GspCJbGTsyloT2xWWcoLwZDcB1DYhStszX8E4ouAYarfd0j50e++dHu02JnBXH3JIxGGHpR0S7JKQP77zm3Oc63XgWnvZqUud6tbGMuZXSvUrPZ/N2K6wlBNEAzLulAo4nL9azNisRqlHEJ2t/fZbrcID4arjz1Y1O/f1CIKJottX0WEdiFGdGLBiI7aqWeoTRIN2mN511zKBBwO3h9eVr5xsVJMcLluMIGow8zfs4tCe0aveYGzCNguWxQlCAEO9292ueyBVBXOrnccWVZyaK5BnOQTRkNVMbvhD3pDV3SiwZ4MlriwvjyCZjVztvfu22l3ZdX1gDvsll+UThIB6zWI3quw+0HXguy4fjGG9wEhlHqeaIUhuUayoMfhW8CXtGlFgCttZ8bjZBgsemyVIFu6zn00LVV3L+tc1o1eRB4YW/WDaQmmHIFkRS833vW/y5awCxnDOqC/H/1XWxcLl+gx93WO7BMlSGp8ffniETYLa8oXoI9lgAyNYLWFOI8NfclwNQbKEwgntIfOMZ0Tc5CYp72gfDblMmeVehQVMYFM15DJjuuTjagkyrgwgPvnJdLdYUt9pp9HjdZkG6GJddKWzJwUMVkyKcbN0hyDjUgklFFPCf5Kr/y67pBznXTRuHZnka6cT3ehI1zqhquOYNfR3Nwkyqawkvnw5xaRIlW3nJYuEO+7Y7deS1wUZyUpmstOBLsvcqmwSryX+3w+CTFP4t79NPp/HHZdiR7j7CYCWq0u4o5zqkqfw+GpieK1OdWtDW9rUNhnIIp6FbPxSydrT0l+CzAJc+keude7SE09MRjryyBQV9+xnp6g5LoQHHpg28eFDuu++aWNCWYl9pIv0nd9s9ONc1wg6UocIO3UigDa0pc1pqSdnydmT77ceQeoA7/3P40qIo4+/O9onqKPeItcMBFkEvTW4diDIGhh5ERUHgiyC3hpcOxBkDYy8iIoDQRZBbw2u/S/CuZzJ/bKtagAAAABJRU5ErkJggg==;" vertex="1" parent="1">
          <mxGeometry x="640" y="2620" width="86" height="86" as="geometry" />
        </mxCell>
        <mxCell id="cQReViLgm3DgUaf5CIKt-82" style="edgeStyle=orthogonalEdgeStyle;rounded=0;orthogonalLoop=1;jettySize=auto;html=1;fontSize=17;fontColor=#FF3333;entryX=0.579;entryY=1;entryDx=0;entryDy=0;entryPerimeter=0;exitX=0;exitY=0.75;exitDx=0;exitDy=0;" edge="1" parent="1" source="cQReViLgm3DgUaf5CIKt-80" target="cQReViLgm3DgUaf5CIKt-65">
          <mxGeometry relative="1" as="geometry">
            <mxPoint x="300.00000000000017" y="2655" as="sourcePoint" />
            <mxPoint x="514.2" y="2670" as="targetPoint" />
          </mxGeometry>
        </mxCell>
        <mxCell id="cQReViLgm3DgUaf5CIKt-83" style="edgeStyle=orthogonalEdgeStyle;rounded=0;orthogonalLoop=1;jettySize=auto;html=1;exitX=0.16;exitY=0.5;exitDx=0;exitDy=0;exitPerimeter=0;entryX=1.048;entryY=0.4;entryDx=0;entryDy=0;entryPerimeter=0;fontSize=17;fontColor=#FF3333;" edge="1" parent="1" source="cQReViLgm3DgUaf5CIKt-84" target="cQReViLgm3DgUaf5CIKt-71">
          <mxGeometry relative="1" as="geometry" />
        </mxCell>
        <mxCell id="cQReViLgm3DgUaf5CIKt-84" value="" style="shape=mxgraph.cisco.computers_and_peripherals.pc;html=1;pointerEvents=1;dashed=0;fillColor=#036897;strokeColor=#ffffff;strokeWidth=2;verticalLabelPosition=bottom;verticalAlign=top;align=center;outlineConnect=0;fontSize=17;fontColor=#FF3333;" vertex="1" parent="1">
          <mxGeometry x="310" y="2000" width="80" height="80" as="geometry" />
        </mxCell>
        <mxCell id="cQReViLgm3DgUaf5CIKt-85" value="" style="verticalLabelPosition=bottom;html=1;verticalAlign=top;align=center;strokeColor=none;shape=mxgraph.azure.user;fontSize=17;fontColor=#FF3333;fillColor=#66B2FF;" vertex="1" parent="1">
          <mxGeometry x="320" y="2090" width="47.5" height="50" as="geometry" />
        </mxCell>
        <mxCell id="cQReViLgm3DgUaf5CIKt-87" value="Replicar" style="text;html=1;strokeColor=none;fillColor=none;align=center;verticalAlign=middle;whiteSpace=wrap;rounded=0;shadow=0;glass=0;dashed=1;sketch=0;fontSize=17;fontColor=#FF3333;" vertex="1" parent="1">
          <mxGeometry x="521.2" y="2500" width="40" height="20" as="geometry" />
        </mxCell>
        <mxCell id="cQReViLgm3DgUaf5CIKt-80" value="" style="aspect=fixed;perimeter=ellipsePerimeter;html=1;align=center;shadow=0;dashed=0;spacingTop=3;image;image=img/lib/active_directory/generic_server.svg;strokeColor=#FF3333;fillColor=none;fontSize=17;fontColor=#FF3333;" vertex="1" parent="1">
          <mxGeometry x="592" y="2510" width="78.4" height="140" as="geometry" />
        </mxCell>
        <mxCell id="cQReViLgm3DgUaf5CIKt-89" value="Proceso Subida de ventas" style="text;html=1;strokeColor=none;fillColor=none;align=center;verticalAlign=middle;whiteSpace=wrap;rounded=0;fontSize=17;fontColor=#FF3333;" vertex="1" parent="1">
          <mxGeometry x="670.4" y="2560" width="130" height="50" as="geometry" />
        </mxCell>
      </root>
    </mxGraphModel>
  </diagram>
</mxfile>
